<svg width="1rem" height="1rem" fill="#7c7c7c" stroke="#000000" stroke-width=".096rem" viewBox="0 0 48 48" xmlns="http://www.w3.org/2000/svg">
   <path d="M21.916 3.516l-7.637 1.793a2 2 0 00-1.341 1.074l-2.965 6.113a2 2 0 00.449 2.348l13.951 12.771a2 2 0 001.727.49l12.015-2.304a2 2 0 001.533-2.557l-2.521-8.156a2 2 0 00-.666-.973L23.617 3.896a2 2 0 00-1.701-.38zm-.031 4.115l11.603 9.228 1.678 5.434-8.834 1.695L14.222 12.9l1.9-3.916z" />
   <path d="M16.041 5.74a2 2 0 00-2.82.211 2 2 0 00.21 2.82l12.335 10.614a2 2 0 002.82-.213 2 2 0 00-.211-2.82zM11.082 18.834a2 2 0 00-1.324.768 2 2 0 00.375 2.804L23.939 32.96a2 2 0 002.805-.375 2 2 0 00-.375-2.803L12.561 19.23a2 2 0 00-1.479-.395zM37.82 22.824a2 2 0 00-1.299.809 2 2 0 00.461 2.79l4.61 3.3a2 2 0 002.79-.461 2 2 0 00-.46-2.791l-4.61-3.301a2 2 0 00-1.492-.346z" />
   <path d="M34.814 13.72l-8.146 1.67a2 2 0 00-1.574 1.657l-1.348 8.79a2 2 0 001.674 2.28 2 2 0 002.28-1.674l1.136-7.414 6.781-1.39a2 2 0 001.559-2.362 2 2 0 00-2.362-1.556zM10.701 18.963l-6.008 1.406a2 2 0 00-1.4 1.203l-2.83 7.063a2 2 0 00.453 2.17l12.77 12.562a2 2 0 001.787.537l12.853-2.515a2 2 0 001.522-2.575l-2.518-7.828a2 2 0 00-2.516-1.29 2 2 0 00-1.293 2.515l1.829 5.684-9.61 1.88L4.67 28.887l1.947-4.86 4.994-1.17a2 2 0 001.493-2.402 2 2 0 00-2.403-1.492z" />
   <path d="M5.098 20.316a2 2 0 00-1.399.623 2 2 0 00.072 2.827l11.793 11.2a2 2 0 002.827-.071 2 2 0 00-.073-2.829l-11.793-11.2a2 2 0 00-1.427-.55zM19.55 20.262a2 2 0 00-2.827.05 2 2 0 00.052 2.829l16.51 15.92a2 2 0 002.828-.053 2 2 0 00-.052-2.828z" />
   <path d="M25.135 29.643l-8.26 1.205a2 2 0 00-1.654 1.506l-2.076 8.548a2 2 0 001.472 2.414 2 2 0 002.414-1.47l1.758-7.237 6.924-1.007a2 2 0 001.69-2.268 2 2 0 00-2.268-1.691z" />
   <path d="M42.92 26.514l-7.04 1.568a2 2 0 00-1.548 1.709l-.977 7.951a2 2 0 002.37 2.205l10.166-1.99a2 2 0 001.539-2.512l-2.153-7.529a2 2 0 00-2.357-1.402zm-.97 4.314l1.034 3.621-5.322 1.043.467-3.812z" />
   <path d="M32.443 24.09a2 2 0 00-2.81.314 2 2 0 00.312 2.81l5.307 4.243a2 2 0 002.81-.312 2 2 0 00-.312-2.811z" />
</svg>