<svg width="1rem" height="1rem" fill="#848484" stroke="#000000" stroke-width=".090rem" xmlns="http://www.w3.org/2000/svg" viewBox="0 0 45.352 45.352">
	<path d="M32.459 0a5.226 5.226 0 00-5.213 4.847L25.85 24.339a3.073 3.073 0 003.057 3.299h.082L28.512 42.9a2.36 2.36 0 00.68 1.735c.454.47 1.079.715 1.732.715h2.002c1.332 0 2.443-1.049 2.443-2.383V2.894c0-1.598-1.311-2.894-2.91-2.894zM20.945.032h-.204a.84.84 0 00-.861.854v8.59c0 .762-.639 1.385-1.4 1.385h-.205c-.761 0-1.406-.623-1.406-1.385V.886a.835.835 0 00-.855-.854h-.207c-.488 0-.876.365-.876.854v8.59a1.39 1.39 0 01-1.386 1.385h-.204c-.761 0-1.351-.623-1.351-1.385V.886c0-.488-.423-.854-.911-.854h-.205c-.487 0-.892.365-.892.854v12.993c0 1.598 1.303 2.862 2.901 2.862h.386l-.816 26.153a2.374 2.374 0 00.679 1.74c.454.469 1.08.718 1.734.718h1.924c.652 0 1.278-.249 1.733-.718.455-.47.699-1.095.68-1.748l-.816-26.146h.55a2.855 2.855 0 002.88-2.862V.885c-.002-.489-.382-.853-.872-.853z" />
</svg>