<svg width="1rem" height="1rem" fill="#cdca00" stroke="#000000" stroke-width=".06rem" viewBox="0 0 33.228 23.739" xmlns="http://www.w3.org/2000/svg">
   <g transform="translate(-52.733 -107.142)">
      <path d="M69.312 115.95c-1.294.005-2.938 1.357-3.862 2.713l7.747.047c-.924-1.355-2.59-2.755-3.885-2.76zm-4.327 3.825c-.144.382-.383 1.397-.48 1.811l9.661.024c-.096-.414-.381-1.453-.525-1.835zm-.608 2.9c-.016.23-.024.462-.026.694.001.205.056 1.117.068 1.32l9.784.025c.014-.204.068-1.14.07-1.345 0-.232-.008-.463-.023-.694zm.23 3.009c.097.45.212 1.143.735 1.988l7.92.048c.415-.534.66-1.584.76-2.036zm1.255 3.006c.924 1.343 2.161 2.096 3.45 2.099 1.291 0 2.531-.753 3.457-2.099z" />
      <ellipse cx="69.39" cy="114.19" rx="3.714" ry="2.679" />
      <ellipse cx="69.557" cy="109.51" rx="2.74" ry="2.272" />
      <ellipse transform="rotate(-15)" cx="47.984" cy="128.15" rx="6.52" ry="2.929" />
      <ellipse transform="matrix(.78544 .61894 -.38958 .92099 0 0)" cx="121.92" cy="47.398" rx="5.285" ry="2.764" stroke-width=".175" />
      <ellipse transform="scale(-1 1) rotate(-15)" cx="-85.972" cy="92.212" rx="6.52" ry="2.929" />
      <ellipse transform="matrix(-.78544 .61894 .38958 .92099 0 0)" cx="-10.533" cy="136.36" rx="5.285" ry="2.764" />
   </g>
</svg>