<svg width="1rem" height="1rem" stroke="#000000" stroke-width=".056rem" xmlns="http://www.w3.org/2000/svg" viewBox="0 0 28.585 20.192">
   <g transform="translate(-175.897 -108.484)">
      <ellipse cx="190.217" cy="123.131" rx="14.065" ry="5.345" fill="#583918" />
      <path d="M190.062 117.863a14.065 5.345 0 00-5.646.452v1.986h10.524v-2.1a14.065 5.345 0 00-4.878-.338zm6.95.702v9.283a14.065 5.345 0 007.115-4.64 14.065 5.345 0 00-7.116-4.643zm-14.668.18a14.065 5.345 0 00-6.347 4.463 14.065 5.345 0 006.347 4.466zm2.072 3.294v2.806h10.524v-2.806zm0 4.543v1.515a14.065 5.345 0 005.646.456 14.065 5.345 0 004.878-.335v-1.636z" fill="#424242" />
      <path d="M182.42 108.59v10.13a14.065 5.345 0 011.922-.4v-9.73z" fill="#583918" />
      <path d="M195.008 108.683v9.483a14.065 5.345 0 011.935.329v-9.812z" fill="#583918" />
      <path d="M184.483 110.245h10.557v1.737h-10.557zM184.483 115.457h10.557v1.737h-10.557z" fill="#583918" />
   </g>
</svg>