<svg width="1rem" height="1rem" stroke="#000000" stroke-width=".044rem" xmlns="http://www.w3.org/2000/svg" viewBox="0 0 21.955 22.029">
   <g stroke="#000">
      <path d="M12.413 7.726l1.89 1.89L2.048 21.872l-1.89-1.89z" fill="#583918" />
      <path d="M15.408 3.555l3.043 3.043-3.257 3.257-3.043-3.043z" fill="#707070" />
      <path d="M18.095 7.047L16.512 8.63s1.78 1.766 3.249 4.367c.932 1.65 1.263 4.952 1.263 4.952s1.689-1.865.156-6.437c-.606-1.806-3.085-4.465-3.085-4.465zM14.889 3.86l-1.583 1.583s-1.766-1.78-4.368-3.249C7.288 1.262 3.986.931 3.986.931S5.852-.758 10.423.775c1.806.606 4.466 3.085 4.466 3.085z" fill="#707070" />
   </g>
</svg>