<svg width="1rem" height="1rem" fill="#8e795a" stroke="#000000" stroke-width=".072rem" xmlns="http://www.w3.org/2000/svg" viewBox="0 0 36.178 19.512">
   <g>
      <path d="M13.27.138L7.222.894S5.71 4.244 4.88 5.574c.518.819 1.595 2.445 1.595 2.445l2.873.97.335 1.268-3.876-1.77L4.315 6.22c-.77.606-3.011 2.771-3.802 3.65-.85.945 0 3.307 0 3.307l3.118 3.685 3.26.26 2.694-2.386 2.994.393.88 2.371 7.37-.638V13.84l2.173-3.213 3.686-1.796-3.969-4.441-2.838.176.994 1.348-.017 1.955-1.236 1.687-.267-.919.777-1.041.033-1.487-1.226-1.53z" />
      <path d="M29.076 9.038l-5.128 2.489-2.071 2.506-.25 4.142 2.689.936 4.844.267 2.506-1.236 2.619.033 1.748-2.422-1.394-4.654-3.874-2.268zM12.514 17.832l-.674-1.925-1.89-.201-2.173 1.842-.059.863 1.571.72 2.268-.047z" />
   </g>
</svg>