<svg width="1rem" height="1rem" fill="#0f8442" stroke="#000000" xmlns="http://www.w3.org/2000/svg" viewBox="0 0 32.663 17.187">
   <path d="M.085 15.582v1.512H29.73v-.891c-.24-.22-.457-.417-.687-.621z" stroke-width=".68" />
   <path stroke-width=".68" d="M1.938 14.07h26.076v1.417H1.938z" />
   <path stroke-width=".80" d="M3.645 1.755h3.019v12.173h-3.02z" />
   <path stroke-width=".68" d="M2.787.085h4.666V1.74H2.787z" />
   <path stroke-width=".80" d="M10.325 1.801h3.019v12.173h-3.02z" />
   <path stroke-width=".68" d="M9.467.13h4.666v1.654H9.467z" />
   <path d="M16.94 4.519v9.502h3.019V6.49l-.245-.018-.898-.59-.354-1.11-.56-.252z" stroke-width=".80" />
   <path d="M25.762 8.951l-.874.567-.945-.023-.422.376v4.077h3.02V9.471z" stroke-width=".68" />
   <path d="M29.196 12.947l-.567.583.127.294-.166.283.166.561-.061.098 2.405 2.336h.565l.878-.904z" stroke-width=".68" />
   <path d="M15.048 13.635c.117.008 1.47 0 1.47 0v-.86l-.601-.11-.41.435-.668.15zM23.057 13.7c-.06.023-1.547 0-1.547 0s.047-.85.094-.839c.047.012.768-.46.768-.46l.685.65z" stroke-width=".52" />
</svg>