<svg width="1rem" height="1rem" stroke="#000000" stroke-width=".01rem" xmlns="http://www.w3.org/2000/svg" viewBox="0 0 5 4.58">
   <radialGradient id="gradient" x1="0%" y1="0%" x2="100%" y2="0%">
      <stop offset="0%" style="stop-color:#01a5b7;stop-opacity:1" />
      <stop offset="60%" style="stop-color:#c7c300;stop-opacity:1" />
      <stop offset="100%" style="stop-color:#7f04b7;stop-opacity:1" />
   </radialGradient>
   <path fill="url(#gradient)" d="M2.769.044C1.818-.08.824.34.32 1.222c-.602 1.055-.274 2.464.808 3.072.959.538 2.236.236 2.78-.751.473-.863.198-2.008-.695-2.486-.766-.41-1.78-.161-2.192.638-.346.67-.124 1.553.583 1.9.574.28 1.327.083 1.606-.533.215-.478.042-1.104-.487-1.31a.814.814 0 00-.589-.003.696.696 0 00-.425.455.598.598 0 00.04.433.493.493 0 00.42.276c.154.002.22-.048.302-.137a.308.308 0 00.09-.217.332.332 0 00-.142-.256c-.115-.033-.166-.015-.256.029.02-.071.064-.113.139-.142a.369.369 0 01.25 0c.25.1.34.428.227.678-.16.353-.619.473-.967.302-.453-.221-.602-.812-.372-1.258.285-.552 1.007-.729 1.55-.438.65.347.855 1.202.503 1.842-.41.746-1.398.98-2.134.567C.516 3.409.255 2.289.73 1.456 1.267.516 2.52.226 3.45.764c1.037.6 1.354 1.985.754 3.01l-.013.17.079.106.19.042.152-.08c.729-1.246.346-2.921-.926-3.657a2.477 2.477 0 00-.917-.31z" />
</svg>