<svg width="1rem" height="1rem" fill="#794d19" stroke="#000000" stroke-width=".002rem" viewBox="0 0 1.208 1.208" xmlns="http://www.w3.org/2000/svg">
   <path d="M-.019.005V.32h1.234V.005zm.063.346v.657h.108A.202.198 0 01.353.825a.202.198 0 01.202.183h.148A.202.198 0 01.904.823a.202.198 0 01.202.185h.104V.733H.856V.35zm.36.06H.61v.202H.403zm.025.023v.149h.153V.434zm.447.09v.032h.06v.152h.033V.556h.067v.152h.033V.556h.066v.15h.033v-.15h.045V.523zM.353.845a.177.177 0 00-.177.177.177.177 0 00.177.177.177.177 0 00.177-.177.177.177 0 00-.177-.177zm.55.002a.177.177 0 00-.177.177.177.177 0 00.177.177.177.177 0 00.176-.177.177.177 0 00-.176-.177z" />
</svg>