<svg width="1rem" height="1rem" fill="#796e5d" stroke="#000000" stroke-width=".045rem" xmlns="http://www.w3.org/2000/svg" viewBox="0 0 22.815 23.848">
   <path d="M1.975 21.836H20.57v1.892H1.975z" />
   <path d="M.366 6.017v1.471c1.996.394 6.479 1.314 6.479 1.314l1.3 2.55 3.897-.85 1.63 1.016 2.032-1.724-1.229-2.953 1.489.496 1.228 2.788-2.575 2.102 1.63 1.063-.165 3.071 2.055 2.268-1.134.52-2.126-2.41.236-2.788-3.26-2.22-3.307.709 1.087 1.866-.945 1.512 1.417 1.559-.803.921-2.032-2.315.992-1.654-2.29-4.488-5.606-.945v11.849H22.45V6.017z" />
   <path d="M1.975 2.947H20.57v1.892H1.975z" />
   <path d="M.67.129h21.207v1.892H.67z" />
</svg>