<svg width="1rem" height="1rem" fill="#0f8442" stroke="#000000" stroke-width=".27rem" viewBox="0 0 135.47 135.47" xmlns="http://www.w3.org/2000/svg">
  <path fill="#654326" d="M97.011 67.688l-4.106 9.771c-.82.245-1.56.657-2.299 1.068l-9.77-4.106-5.913 5.912 4.106 9.772c-.41.82-.74 1.478-1.068 2.298l-9.77 4.106v8.211l9.77 4.106c.329.82.657 1.478 1.068 2.299l-4.106 9.77 5.912 5.913 9.771-4.106c.74.329 1.478.74 2.3 1.068l4.105 9.771h8.211l4.106-9.771c.739-.328 1.56-.657 2.299-1.068l9.77 4.106 5.913-5.912-4.106-9.771c.329-.74.74-1.56 1.068-2.3l9.771-4.105V96.51l-9.771-4.105c-.245-.74-.657-1.56-1.068-2.3l4.106-9.77-5.912-5.913-9.771 4.106c-.74-.329-1.56-.74-2.3-1.068l-4.105-9.771zm4.106 20.528a12.3 12.3 0 0112.316 12.317 12.3 12.3 0 01-12.316 12.317 12.3 12.3 0 01-12.318-12.317 12.3 12.3 0 0112.317-12.317z" />
  <path d="M91.503 86.17c-1.61-.005-3.88-.02-5.431.023-3.212-7.216-9.598-12.261-16.94-13.408V63.45c5.874-.114 17.63-1.743 27.178-11.903 13.005-13.842 11.142-31.793 11.054-32.564-.173-1.562-1.33-2.793-2.798-2.979-.726-.09-17.864-2.323-30.867 11.518-3.323 3.537-5.666 7.356-7.325 11.098-5.34-13.41-17.86-22.801-32.417-22.801h-6.395c-1.765 0-3.198 1.523-3.198 3.403v6.805c0 20.641 15.78 37.422 35.175 37.422h3.197v9.331C55.4 73.92 48.998 78.94 45.78 86.145h-5.44c-14.405 0-22.371 13.521-22.371 22.867 0 6.516 3.643 11.162 9.58 11.162h76.747c6.074 0 9.716-4.646 9.716-11.081 0-9.38-8.015-22.926-22.507-22.926zM78.221 32.335c7.97-8.48 18.093-9.547 22.867-9.65-.098 5.085-1.335 15.57-9.3 24.05-5.736 6.103-12.58 8.485-17.75 9.386l13.343-14.2c1.25-1.327 1.25-3.483 0-4.811-1.249-1.33-3.272-1.33-4.522 0l-13.531 14.4c.799-5.51 3.014-12.919 8.892-19.175zM49.009 37.11c-1.25-1.329-3.273-1.329-4.522 0-1.25 1.328-1.25 3.484 0 4.812l13.657 14.534c-15.22-.774-27.385-14.041-27.385-30.428v-3.403h3.198c15.4 0 27.975 12.83 28.709 29.018z" />
</svg>