<svg width="1rem" height="1rem" fill="#d57fbc" stroke="#000000" stroke-width=".736rem" viewBox="0 0 368.64 368.64" xmlns="http://www.w3.org/2000/svg">
  <path fill="#654326" d="M263.991 184.197l-11.172 26.59c-2.235.667-4.245 1.787-6.256 2.905l-26.59-11.172-16.088 16.088 11.172 26.59c-1.117 2.234-2.01 4.022-2.904 6.256l-26.59 11.172v22.344l26.59 11.173c.893 2.234 1.788 4.022 2.904 6.256l-11.172 26.59 16.088 16.088 26.59-11.173c2.01.894 4.021 2.011 6.256 2.906l11.172 26.59h22.345l11.172-26.59c2.01-.894 4.245-1.788 6.256-2.906l26.59 11.173 16.088-16.089-11.172-26.59c.893-2.01 2.01-4.245 2.905-6.255l26.59-11.173v-22.344l-26.59-11.172c-.667-2.011-1.788-4.246-2.905-6.257l11.172-26.59-16.088-16.087-26.59 11.172c-2.01-.894-4.246-2.011-6.256-2.905l-11.172-26.59zm11.172 55.861c18.546 0 33.517 14.97 33.517 33.517 0 18.545-14.97 33.516-33.517 33.516-18.546 0-33.516-14.97-33.516-33.516s14.97-33.517 33.516-33.517z" />
  <path d="M251.025 13.852H117.616c-12.28 0-22.235 9.954-22.235 22.235 0 12.28 9.955 22.235 22.235 22.235h133.41c12.28 0 22.235-9.955 22.235-22.235s-9.955-22.235-22.236-22.235zM294.386 243.613H74.256c-.662 4.894-1.11 9.83-1.11 14.823 0 2.486.087 4.957.248 7.412h221.853c.162-2.455.248-4.926.248-7.412 0-4.993-.448-9.929-1.109-14.823zM77.172 288.083c7.374 26.733 24.611 49.967 49.187 65.062a11.121 11.121 0 005.82 1.643h104.285c2.054 0 4.067-.569 5.82-1.643 24.575-15.095 41.812-38.33 49.186-65.062zM295.495 147.262c0-24.522-19.947-44.47-44.47-44.47-2.072 0-4.109.154-6.107.43.13-.783.26-1.566.407-2.348l3.81-20.317H119.506l3.808 20.317c.147.782.278 1.565.407 2.348a44.633 44.633 0 00-6.107-.43c-24.522 0-44.47 19.947-44.47 44.47 0 17.8 10.514 33.18 25.654 40.28-8.415 10.14-14.842 21.612-19.185 33.837h209.412c-4.342-12.226-10.769-23.697-19.183-33.837 15.14-7.101 25.652-22.482 25.652-40.28zm-182.884 21.66c-9.858-2.277-17.23-11.12-17.23-21.66 0-12.262 9.973-22.236 22.234-22.236 2.57 0 5.036.444 7.333 1.248-.878 15.23-5.1 29.88-12.337 42.647zm143.42 0c-7.236-12.77-11.46-27.42-12.339-42.648a22.132 22.132 0 017.333-1.248c12.261 0 22.235 9.974 22.235 22.235 0 10.54-7.372 19.383-17.229 21.66z" />
</svg>