<svg width="1rem" height="1rem" fill="#945104" stroke="#000000" stroke-width=".72rem" xmlns="http://www.w3.org/2000/svg" viewBox="0 0 368.64 368.64">
  <path fill="#654326" d="M263.991 184.197l-11.172 26.59c-2.235.667-4.245 1.787-6.256 2.905l-26.59-11.172-16.088 16.088 11.172 26.59c-1.117 2.234-2.01 4.022-2.904 6.256l-26.59 11.172v22.344l26.59 11.173c.893 2.234 1.788 4.022 2.904 6.256l-11.172 26.59 16.088 16.088 26.59-11.173c2.01.894 4.021 2.011 6.256 2.906l11.172 26.59h22.345l11.172-26.59c2.01-.894 4.245-1.788 6.256-2.906l26.59 11.173 16.088-16.089-11.172-26.59c.893-2.01 2.01-4.245 2.905-6.255l26.59-11.173v-22.344l-26.59-11.172c-.667-2.011-1.788-4.246-2.905-6.257l11.172-26.59-16.088-16.087-26.59 11.172c-2.01-.894-4.246-2.011-6.256-2.905l-11.172-26.59zm11.172 55.861c18.546 0 33.517 14.97 33.517 33.517 0 18.545-14.97 33.516-33.517 33.516-18.546 0-33.516-14.97-33.516-33.516s14.97-33.517 33.516-33.517z" />
  <g>
    <path d="M162.371 258.94h111.58a7.962 7.962 0 017.962 7.963v55.789a7.962 7.962 0 01-7.962 7.962H162.37a7.962 7.962 0 01-7.962-7.962v-55.788a7.962 7.962 0 017.962-7.963zM24.783 258.94h111.58a7.962 7.962 0 017.963 7.963v55.789a7.962 7.962 0 01-7.963 7.962H24.783a7.962 7.962 0 01-7.962-7.962v-55.788a7.962 7.962 0 017.962-7.963zM273.95 167.99H162.372a7.962 7.962 0 01-7.962-7.962V104.24a7.962 7.962 0 017.962-7.962h111.58a7.962 7.962 0 017.962 7.962v55.788a7.962 7.962 0 01-7.962 7.962zM24.783 96.276h111.58a7.962 7.962 0 017.963 7.962v55.788a7.962 7.962 0 01-7.963 7.962H24.783a7.962 7.962 0 01-7.962-7.962v-55.788a7.962 7.962 0 017.962-7.962zM206.87 86.658H95.29a7.962 7.962 0 01-7.963-7.962V22.908a7.962 7.962 0 017.962-7.962h111.58a7.962 7.962 0 017.963 7.962v55.788a7.962 7.962 0 01-7.962 7.962zM212.524 185.57v55.79a7.962 7.962 0 01-7.962 7.963H92.982a7.962 7.962 0 01-7.961-7.962v-55.79a7.962 7.962 0 017.962-7.963h111.579a7.96 7.96 0 017.962 7.963zM224.314 241.36v-55.79a7.962 7.962 0 017.963-7.962h111.58a7.962 7.962 0 017.962 7.963v55.79a7.962 7.962 0 01-7.962 7.962h-111.58a7.96 7.96 0 01-7.963-7.962z" />
  </g>
</svg>