<svg width="1rem" height="1rem" stroke="#000000" stroke-width=".736rem" xmlns="http://www.w3.org/2000/svg" viewBox="0 0 368.64 368.64">
  <path fill="#654326" d="M263.991 184.197l-11.172 26.59c-2.235.667-4.245 1.787-6.256 2.905l-26.59-11.172-16.088 16.088 11.172 26.59c-1.117 2.234-2.01 4.022-2.904 6.256l-26.59 11.172v22.344l26.59 11.173c.893 2.234 1.788 4.022 2.904 6.256l-11.172 26.59 16.088 16.088 26.59-11.173c2.01.894 4.021 2.011 6.256 2.906l11.172 26.59h22.345l11.172-26.59c2.01-.894 4.245-1.788 6.256-2.906l26.59 11.173 16.088-16.089-11.172-26.59c.893-2.01 2.01-4.245 2.905-6.255l26.59-11.173v-22.344l-26.59-11.172c-.667-2.011-1.788-4.246-2.905-6.257l11.172-26.59-16.088-16.087-26.59 11.172c-2.01-.894-4.246-2.011-6.256-2.905l-11.172-26.59zm11.172 55.861c18.546 0 33.517 14.97 33.517 33.517 0 18.545-14.97 33.516-33.517 33.516-18.546 0-33.516-14.97-33.516-33.516s14.97-33.517 33.516-33.517z" />
  <g>
    <path fill="#ecb019" d="M198.129 102.244V68.488l29.233-16.88 29.234 16.88v33.756l-29.234 16.881zM96.2 68.488l29.237-16.88 29.233 16.88v33.756l-29.233 16.881-29.236-16.881zM249.09 156.756l29.234-16.875 29.236 16.875v33.755l-29.236 16.881-29.235-16.881zM205.635 156.756v33.755l-29.237 16.881-29.234-16.881v-33.755l29.234-16.875zM103.71 156.756v33.755l-29.234 16.881-29.237-16.881v-33.755l29.237-16.875zM96.2 278.784V245.03l29.237-16.881 29.233 16.88v33.756l-27.103 15.645c6.661 7.675 26.06 34.819 26.06 48.13 0 15.599-12.644 28.241-28.24 28.241-15.598 0-28.24-12.643-28.24-28.242 0-13.333 19.461-40.54 26.094-48.164zM256.596 245.029v33.755l-29.234 16.875-29.233-16.875V245.03l29.233-16.881z" />
    <path fill="#f8c034" d="M65.785 109.776V50.924l59.652-34.435 50.961 29.42 50.964-29.42 59.653 34.435v58.852l50.96 29.42v68.88l-50.96 29.42v58.847l-59.653 34.44-50.964-29.42-21.256 12.27c-1.495-2.606-3.2-5.412-5.163-8.447a292.27 292.27 0 00-4.151-6.238l21.883-12.638v-48.813l-42.274-24.408-42.274 24.408v48.813l21.811 12.592a287.607 287.607 0 00-4.18 6.285 192.622 192.622 0 00-5.14 8.4l-29.869-17.244v-58.846l-50.96-29.42v-68.88zm203.851-48.814L227.362 36.55 185.09 60.962v48.815l21.135 12.2 21.138 12.2 21.136-12.2 21.138-12.2zM320.6 198.044v-48.815l-42.276-24.407-42.274 24.407v48.815l21.138 12.2 21.136 12.206zM185.09 286.31l42.273 24.407 42.274-24.407v-48.813l-42.274-24.408-42.273 24.408zm-50.964-88.266l21.138 12.2 21.135 12.206 21.139-12.206 21.138-12.2v-48.815l-42.277-24.407-42.273 24.407zm12.45-76.068l21.136-12.2V60.96L125.437 36.55 83.163 60.961v48.815l21.14 12.2 21.134 12.201zM32.2 198.044l42.277 24.406 21.135-12.206 21.138-12.2v-48.815l-42.273-24.407-42.277 24.407z" />
  </g>
</svg>