<svg width="1rem" height="1rem" fill="#cfcfcf" stroke="#000000" stroke-width=".736rem" xmlns="http://www.w3.org/2000/svg" viewBox="0 0 368.64 368.64">
    <path fill="#654326" d="M263.991 184.197l-11.172 26.59c-2.235.667-4.245 1.787-6.256 2.905l-26.59-11.172-16.088 16.088 11.172 26.59c-1.117 2.234-2.01 4.022-2.904 6.256l-26.59 11.172v22.344l26.59 11.173c.893 2.234 1.788 4.022 2.904 6.256l-11.172 26.59 16.088 16.088 26.59-11.173c2.01.894 4.021 2.011 6.256 2.906l11.172 26.59h22.345l11.172-26.59c2.01-.894 4.245-1.788 6.256-2.906l26.59 11.173 16.088-16.089-11.172-26.59c.893-2.01 2.01-4.245 2.905-6.255l26.59-11.173v-22.344l-26.59-11.172c-.667-2.011-1.788-4.246-2.905-6.257l11.172-26.59-16.088-16.087-26.59 11.172c-2.01-.894-4.246-2.011-6.256-2.905l-11.172-26.59zm11.172 55.861c18.546 0 33.517 14.97 33.517 33.517 0 18.545-14.97 33.516-33.517 33.516-18.546 0-33.516-14.97-33.516-33.516s14.97-33.517 33.516-33.517z" />
    <path d="M336.295 64.077H32.345c-9.775 0-17.775 8.89-17.775 17.682 0 8.792 8 17.676 17.775 17.676h4.293v35.364h295.796V99.435h3.861c9.782 0 17.774-8.884 17.774-17.676 0-8.791-7.992-17.682-17.774-17.682zM184.32 117.265c-4.909 0-8.883-4.095-8.883-9.138s3.974-9.138 8.883-9.138c4.915 0 8.884 4.095 8.884 9.138s-3.969 9.138-8.884 9.138zM36.638 205.521h295.796v-56.569H36.638zm147.682-38.01c4.915 0 8.884 4.088 8.884 9.131 0 5.05-3.969 9.138-8.884 9.138-4.909 0-8.883-4.087-8.883-9.138-.007-5.043 3.974-9.13 8.883-9.13zM36.638 254.302v41.123c0 5.022.63 9.138 5.517 9.138h35.534c4.887 0 7.101-4.116 7.101-9.138v-26.241h199.491v26.241c0 5.022 1.782 9.138 6.663 9.138h35.542c4.873 0 5.94-4.116 5.94-9.138v-75.744H36.639zm147.682-18.268c4.915 0 8.884 4.095 8.884 9.13 0 5.058-3.969 9.131-8.884 9.131-4.909 0-8.883-4.073-8.883-9.13-.007-5.029 3.974-9.131 8.883-9.131z" />
</svg>