<svg width="1rem" height="1rem" stroke="#000000" stroke-width=".736rem" xmlns="http://www.w3.org/2000/svg" viewBox="0 0 368.64 368.64">
    <path fill="#654326" d="M263.991 184.197l-11.172 26.59c-2.235.667-4.245 1.787-6.256 2.905l-26.59-11.172-16.088 16.088 11.172 26.59c-1.117 2.234-2.01 4.022-2.904 6.256l-26.59 11.172v22.344l26.59 11.173c.893 2.234 1.788 4.022 2.904 6.256l-11.172 26.59 16.088 16.088 26.59-11.173c2.01.894 4.021 2.011 6.256 2.906l11.172 26.59h22.345l11.172-26.59c2.01-.894 4.245-1.788 6.256-2.906l26.59 11.173 16.088-16.089-11.172-26.59c.893-2.01 2.01-4.245 2.905-6.255l26.59-11.173v-22.344l-26.59-11.172c-.667-2.011-1.788-4.246-2.905-6.257l11.172-26.59-16.088-16.087-26.59 11.172c-2.01-.894-4.246-2.011-6.256-2.905l-11.172-26.59zm11.172 55.861c18.546 0 33.517 14.97 33.517 33.517 0 18.545-14.97 33.516-33.517 33.516-18.546 0-33.516-14.97-33.516-33.516s14.97-33.517 33.516-33.517z" />
    <path fill="#1192dc" d="M202.8 109.52l54.311-54.994-20.733-41.987H124.435l-20.738 41.987 54.316 54.994c-55.084 10.644-96.869 59.678-96.869 118.464 0 66.546 53.504 120.672 119.26 120.672 65.755 0 119.26-54.126 119.26-120.672 0-58.786-41.785-107.826-96.864-118.464m26.84-86.135l12.178 24.66H208.38l-4.017-24.66h25.276m-62.22 0h25.959l4.016 24.66h-34.06l4.085-24.66m-36.25 0h25.264l-4.084 24.66h-33.36l12.18-24.66m66.114 304.232c-59.784 0-125.299-39.076-125.299-99.633 0-60.557 52.558-101.468 112.336-101.468s97.985 45.079 97.985 105.641c0 60.563-50.694 95.205-110.478 95.205" />
    <path fill="#d0d0d0" d="M180.228 117.351c-52.978 0-110.479 57.14-110.479 110.733 0 53.6 61.593 113.533 114.57 113.533 52.978 0 108.932-59.928 108.932-113.533 0-53.594-55.954-111.496-108.931-111.496m-3.916 197.756c-47.006 0-85.245-38.743-85.245-86.36 0-47.616 38.245-86.36 85.245-86.36 47 0 85.24 38.744 85.24 86.36 0 47.617-38.234 86.36-85.24 86.36" />
</svg>