<svg width="1rem" height="1rem" fill="#795b3c" stroke="#000000" stroke-width=".736rem" xmlns="http://www.w3.org/2000/svg" viewBox="0 0 368.64 368.64">
    <path fill="#654326" d="M263.991 184.197l-11.172 26.59c-2.235.667-4.245 1.787-6.256 2.905l-26.59-11.172-16.088 16.088 11.172 26.59c-1.117 2.234-2.01 4.022-2.904 6.256l-26.59 11.172v22.344l26.59 11.173c.893 2.234 1.788 4.022 2.904 6.256l-11.172 26.59 16.088 16.088 26.59-11.173c2.01.894 4.021 2.011 6.256 2.906l11.172 26.59h22.345l11.172-26.59c2.01-.894 4.245-1.788 6.256-2.906l26.59 11.173 16.088-16.089-11.172-26.59c.893-2.01 2.01-4.245 2.905-6.255l26.59-11.173v-22.344l-26.59-11.172c-.667-2.011-1.788-4.246-2.905-6.257l11.172-26.59-16.088-16.087-26.59 11.172c-2.01-.894-4.246-2.011-6.256-2.905l-11.172-26.59zm11.172 55.861c18.546 0 33.517 14.97 33.517 33.517 0 18.545-14.97 33.516-33.517 33.516-18.546 0-33.516-14.97-33.516-33.516s14.97-33.517 33.516-33.517z" />
    <path d="M17.932 283.651l21.574-21.573c1.078-1.079 2.157-1.618 3.775-1.618h14.023l-2.697-9.17c-1.079-2.156 0-4.314 1.618-5.932l26.967-21.574c1.08-.539 2.158-1.079 3.237-1.079h40.99l51.238-51.238L88.64 81.45c-4.943 2.38-7.459 4.118-7.604 4.262l-2.157 1.08-.539.538c-26.967 11.327-40.45 6.473-52.316.54-4.854-2.158-8.63-7.012-9.17-12.406-.538-4.854 1.619-10.247 5.394-14.023 4.854-4.315 11.865-5.393 17.798-2.697 5.394 2.697 9.17 4.315 23.732-1.618 10.786-6.47 65.8-28.045 121.891-22.112.498 0 41.843 5.05 84.66 44.783l17.277-17.276c.215-.215.443-.402.677-.575-8.763-7.752-19.158-13.778-30.88-17.763-2.158-.54-3.776-3.237-3.776-5.394s1.618-4.315 4.315-4.854l75.508-16.18c1.618 0 3.236.539 4.854 1.618 1.618 1.079 2.157 3.236 1.618 4.854l-16.18 75.509c-.54 2.696-2.697 4.315-5.394 4.315-2.157 0-4.314-1.619-4.854-3.776-3.985-11.722-10.011-22.117-17.763-30.88-.172.234-.36.462-.575.677l-17.188 17.188a215.624 215.624 0 013.165 3.307c42.069 39.912 44.766 79.284 44.766 90.071 4.315 70.114-13.484 105.71-21.574 118.116-5.393 12.405-4.315 14.023-2.157 17.798l.54.54c3.235 5.932 2.156 12.944-2.158 17.798l-1.618 1.618c-3.236 3.236-7.011 4.854-11.326 4.854h-1.618c-4.854-.54-8.63-3.236-11.327-7.011-7.01-11.327-11.865-22.653 0-50.16l.54-1.078s2.265-3.21 5.203-9.899l-94.195-94.195-51.05 51.05 3.048 40.64c0 1.079-.54 2.697-1.618 3.775l-30.204 32.9c-1.618 1.618-3.775 2.157-5.933 1.618l-8.63-3.236v14.023c0 1.618-.538 2.697-1.617 3.775l-16.18 16.18c-1.08 1.08-2.158 1.619-3.776 1.619-.539 0-1.079 0-1.618-.54-2.157-.539-3.775-2.157-3.775-4.314l-4.015-32.122-7.55-7.55-32.122-4.015c-2.157-.54-3.775-1.618-4.315-3.776-1.078-1.618-.54-3.775 1.079-5.394zm168.276-119.734l60.401-60.402c-30.915-29.806-57.918-36.168-62.019-36.68-40.42-2.508-68.64 4.087-85.302 10.16zm98.35 98.35c5.424-16.538 10.763-43.295 8.44-81.63 0-1.58-1.548-34.5-38.732-69.677l-60.507 60.508z" />
</svg>