<svg width="1rem" height="1rem" fill="#e9c200" xmlns="http://www.w3.org/2000/svg" viewBox="0 0 368.64 368.64">
    <path stroke="#000000" stroke-width=".2rem" d="M180.332 255.337l-2.24 13.744h12.458l-2.238-13.744a7.557 7.557 0 00-3.99-13.972 7.56 7.56 0 00-7.56 7.558 7.554 7.554 0 003.57 6.414zM171.098 178.437l18.308 15.145 8.401-2.738-25.797-22.471zM218.612 182.248l8.319 9.982 3.888-5.55-6.105-6.654zM210.844 199.44l-1.666 8.322 21.085-7.21-7.213-5.55zM133.727 200l11.651-9.436-11.651-3.883zM159.526 198.33l-2.912 6.244h17.476l-2.08-6.244zM154.848 134.832c1.336-6.254 4.026-13.126 7.96-17.062 3.933-3.931 10.803-6.622 17.052-7.964-6.249-1.333-13.12-4.023-17.055-7.96-3.932-3.93-6.624-10.802-7.96-17.051-1.337 6.249-4.027 13.121-7.963 17.057-3.932 3.932-10.804 6.622-17.053 7.96 6.252 1.337 13.122 4.027 17.055 7.959 3.932 3.935 6.627 10.807 7.964 17.061zM236.365 145.728c.802-3.758 2.42-7.887 4.781-10.254 2.365-2.36 6.488-3.979 10.246-4.785-3.757-.802-7.881-2.42-10.246-4.781-2.364-2.362-3.98-6.49-4.784-10.248-.801 3.757-2.421 7.887-4.783 10.248-2.364 2.366-6.493 3.98-10.25 4.786 3.757.801 7.887 2.42 10.25 4.786 2.362 2.36 3.982 6.49 4.786 10.248z" />
    <path stroke="#000000" stroke-width=".736rem" d="M288.4 150.716l18.27-88.031-14.88-29.755a44.118 44.118 0 00-39.46-24.389H116.316A44.12 44.12 0 0076.853 32.93l-14.88 29.755 18.27 88.031-37.808 69.037v129.145h283.77V219.753zm.077 34.01c-2.82.603-5.92 1.815-7.692 3.592-1.778 1.772-2.99 4.873-3.594 7.693-.603-2.82-1.82-5.92-3.593-7.693-1.777-1.777-4.878-2.99-7.693-3.593 2.815-.603 5.916-1.82 7.693-3.593 1.772-1.777 2.985-4.878 3.593-7.693.6 2.815 1.816 5.916 3.594 7.693 1.771 1.773 4.872 2.99 7.692 3.593zM95.106 209.533l9.987-8.529 6.24-9.596h14.978l2.497-8.525 14.978-10.662 19.97 2.13 2.497-10.66 26.212-5.336 18.72 15.996 12.485-4.265 16.225 14.928 13.732 6.394 19.487 18.125h-17.019l-8.775-9.118-1.575 9.118zm119.464 20.54v49.28h-60.496v-49.28zM90.269 172.299c3.443-.734 7.23-2.222 9.398-4.385 2.166-2.168 3.65-5.95 4.385-9.398.737 3.443 2.22 7.23 4.385 9.398 2.169 2.163 5.955 3.646 9.4 4.385-3.445.734-7.231 2.221-9.397 4.385-2.166 2.168-3.649 5.954-4.388 9.398-.737-3.444-2.219-7.23-4.385-9.398-2.166-2.164-5.952-3.65-9.398-4.385zM287.275 70.122l-16.058 77.392H97.427L81.363 70.122z" />
</svg>