<svg width="1rem" height="1rem" fill="#4799cf" stroke="#000000" stroke-width=".982rem" xmlns="http://www.w3.org/2000/svg" viewBox="0 0 491 491">
	<path d="M491 165.1L427.1 22.6H63.9L0 165.1l245.5 303.3L491 165.1zm-308.1 22h125.3L245.5 371l-62.6-183.9zm119.9 128.2l43.7-128.2h60.1L302.8 315.3zm99.2-222l18.8 42h-47.2l28.4-42zm-31-18.9l-37.8 56-44.2-56h82zm-80.2 60.9h-90.7l45.4-57.5 45.3 57.5zM202 74.4l-44.2 56-37.8-56h82zM89 93.3l28.3 42H70.2l18.8-42zm-4.6 93.8h60.1l43.7 128.2L84.4 187.1z" />
</svg>