<svg width="1.2rem" height="1.2rem" fill="#767373" stroke="#000000" stroke-width=".512rem" xmlns="http://www.w3.org/2000/svg" viewBox="0 0 256 256">
	<path d="M247.769 150.406c-.621-7.079-8.779-11.157-16.669-15.101-3.163-1.582-8.436-4.217-9.388-5.624-2.966-7.613-4.592-8.336-16.975-13.843-3.595-1.599-8.07-3.589-13.989-6.339-16.138-7.497-28.605-17.704-38.623-25.906-6.096-4.991-11.361-9.301-16.257-12.053-7.321-4.115-13.951-4.706-19.367-1.956-8.019 4.071-25.936 23.747-37.833 34.045-16.338 14.143-45.719 32.539-59.563 36.186-15.422 4.062-16.859 15.213 9.184 18.589 46.661 6.05 36.308 16.493 81.825 19.16 28.434 1.666 104.438-8.216 129.889-17.625 2.583-.71 4.328-1.732 5.642-3.149 1.603-1.732 2.338-3.939 2.124-6.384zm-137.451-2.015a3.938 3.938 0 11-.008-7.876 3.938 3.938 0 01.008 7.876zm11.662-12.217a3.5 3.5 0 11-.008-7 3.5 3.5 0 01.008 7zm7.897 19.197a4.374 4.374 0 01-4.38-4.371 4.374 4.374 0 014.371-4.38 4.376 4.376 0 01.009 8.751zm23.476-34.615c-11.005-12.065-17.739-30.072-23.983-41.293.519.224 1.052.486 1.596.792 4.137 2.325 9.088 6.379 14.823 11.074 10.453 8.558 23.462 19.208 40.745 27.237 5.994 2.785 10.51 4.793 14.138 6.407 5.331 2.371 8.548 3.802 9.865 4.825.632.49.825.858 1.89 3.598 1.81 4.659 7.552 7.529 14.201 10.853 2.536 1.268 6.914 3.531 9.521 5.373.595.42.382 1.355-.339 1.461-2.599.381-7.172.66-14.533.182-16.989-1.102-45.885-6.346-67.924-30.509zm-82.361 58.823a5.03 5.03 0 11-10.06-.001 5.03 5.03 0 0110.06.001zm-17.872-7.881a4.435 4.435 0 11-8.871-.001 4.435 4.435 0 018.871.001zm-20.06 10.176a4 4 0 11-8 0 4 4 0 018 0zm186.19-4.125a4.125 4.125 0 11-8.25 0 4.125 4.125 0 018.25 0z" />
</svg>