<svg width="1rem" height="1rem" fill="#422d0e" stroke="#000000" stroke-width=".544rem" xmlns="http://www.w3.org/2000/svg" viewBox="0 0 272.16 272.16">
  <path d="M266.95 139.224l-43.799-93.073a5.473 5.473 0 00-2.628-2.628L138.4 5.198a5.466 5.466 0 00-4.642 0L51.633 43.523a5.473 5.473 0 00-2.628 2.628l-43.8 93.073a5.497 5.497 0 00.33 5.267 5.452 5.452 0 004.62 2.54H26.58v114.973a5.477 5.477 0 005.475 5.475h27.374v-2.343l76.649-44.927 76.649 44.927v2.343H240.1a5.477 5.477 0 005.475-5.475V147.031h16.425a5.466 5.466 0 004.621-2.54 5.466 5.466 0 00.328-5.267zM103.228 64.908a5.477 5.477 0 015.476-5.475h54.749a5.477 5.477 0 015.475 5.475v65.699a5.477 5.477 0 01-5.475 5.475h-54.75a5.477 5.477 0 01-5.475-5.475zM59.43 252.456v-77.174l65.83 38.587zm10.819-83.525h131.66l-65.83 38.587zm142.48 83.515l-65.831-38.588 65.83-38.587z" />
</svg>