<svg width="1rem" height="1rem" fill="#573a25" stroke="#000000" stroke-width="1.024rem" xmlns="http://www.w3.org/2000/svg" viewBox="0 0 512.001 512.001">
	<path d="M508.3 486.598L384.191 283.511c-6.506-10.646-21.995-10.646-28.499 0l-19.891 32.55 93.576 153.125c7.922 12.997 9.353 28.748 4.39 42.815h60.284V512c13.05 0 21.012-14.309 14.249-25.402zM400.887 486.598L217.234 186.076c-6.506-10.646-21.995-10.646-28.5 0L5.083 486.598C-1.681 497.691 6.28 512 19.332 512h367.304c13.052 0 21.014-14.309 14.251-25.402zM236.375 338.125l-21.587-21.582c-6.521-6.521-17.087-6.521-23.609 0l-21.588 21.582-21.5-21.501 54.891-89.826 54.891 89.826-21.498 21.501zM191.516 54.75c-7.652-11.592-19.456-18.734-33.402-20.517C146.485 13.364 124.398 0 100.028 0c-24.37 0-46.456 13.37-58.086 34.239-13.936 1.784-25.74 8.929-33.392 20.527-20.068 30.432-3.377 78.799 41.391 78.799h100.174c44.636 0 61.536-48.304 41.401-78.815zM445.071 0c-24.416 0-46.283 13.467-57.929 33.996a66.04 66.04 0 00-8.853-.604c-24.37 0-46.456 13.37-58.087 34.239-13.935 1.783-25.739 8.929-33.391 20.527-20.067 30.432-3.376 78.799 41.392 78.799h100.174c25.557 0 45.127-16.488 48.996-41.785 20.982-11.609 34.482-33.81 34.482-58.389C511.854 29.956 481.897 0 445.071 0zm25.044 88.744c-.124-.195-.209-.411-.337-.603-7.652-11.592-19.456-18.734-33.402-20.517-4.562-8.188-10.774-15.164-18.063-20.687 6.17-8.287 15.971-13.546 26.759-13.546 18.413 0 33.391 14.978 33.391 33.391-.001 8.297-3.134 16.006-8.348 21.962z" />
</svg>