<svg width="1rem" height="1rem" fill="#676767" stroke="#000000" stroke-width=".544rem" xmlns="http://www.w3.org/2000/svg" viewBox="0 0 272.16 272.16">
    <path d="M216.912 37.19c0-.867-.581-1.623-1.423-1.84l-75.14-19.244V8.302a4.444 4.444 0 10-8.888 0l.009 67.409h-3.108a1.9 1.9 0 00-1.901 1.896v20.578h-16.667V77.608a1.9 1.9 0 00-1.902-1.897H92.806a1.9 1.9 0 00-1.901 1.897v20.577H74.238V77.608a1.9 1.9 0 00-1.9-1.897H57.25a1.9 1.9 0 00-1.9 1.897v53.634a8.591 8.591 0 008.593 8.593h12.544L55.384 258.199a8.577 8.577 0 001.866 7.026 8.598 8.598 0 006.589 3.078h144.133a8.598 8.598 0 006.588-3.078 8.577 8.577 0 001.865-7.026l-21.101-118.364h12.543a8.592 8.592 0 008.595-8.594V77.608a1.9 1.9 0 00-1.902-1.897h-15.087c-1.05 0-1.9.851-1.9 1.897v20.577h-16.668V77.608a1.9 1.9 0 00-1.901-1.897h-15.087a1.9 1.9 0 00-1.901 1.897v20.577H145.35V77.608a1.9 1.9 0 00-1.901-1.897h-3.091l-.01-17.435 75.14-19.244a1.895 1.895 0 001.424-1.841zm-60.537 145.613v37.21h-40.93v-37.21c0-11.301 9.159-20.463 20.469-20.463 11.302 0 20.46 9.162 20.46 20.463z" />
</svg>