<svg width="1rem" height="1rem" fill="#76716c" stroke="#000000" stroke-width=".067rem" viewBox="0 0 33.867 33.867" xmlns="http://www.w3.org/2000/svg">
  <path d="M12.818 11.248l-6.114 6.115 2.446 2.445 6.114-6.114V12.47l1.223-1.223 1.223 1.223v1.223l6.114 6.114 2.446-2.445-6.114-6.115h-1.223l-1.223-1.223 1.223-1.223h1.223l6.114-6.114L23.824.242 17.71 6.356V7.58l-1.223 1.223-1.223-1.223V6.356L9.15.242 6.704 2.688l6.114 6.114h1.223l1.223 1.223-1.223 1.223zM26.27 30.814h-2.446l-2.445-9.783-4.892-4.891-4.892 4.891-2.445 9.783H6.704a1.223 1.223 0 100 2.446H26.27a1.223 1.223 0 000-2.446zm-8.56 0h-2.446V27.14c0-.672.545-1.217 1.217-1.217.679 0 1.229.55 1.229 1.229z" />
</svg>