<svg width="1.1rem" height="1.1rem" stroke="#000000" stroke-width=".067rem" xmlns="http://www.w3.org/2000/svg" viewBox="0 0 33.867 33.867" xmlns:xlink="http://www.w3.org/1999/xlink">
  <linearGradient id="gradient" x1="0%" y1="0%" x2="100%" y2="0%" gradientTransform="rotate(45)">
    <stop offset="0%" style="stop-color:#009a7e;stop-opacity:1" />
    <stop offset="20%" style="stop-color:#01a5b7;stop-opacity:1" />
    <stop offset="80%" style="stop-color:#c7c300;stop-opacity:1" />
    <stop offset="100%" style="stop-color:#ab00a8;stop-opacity:1" />
  </linearGradient>

  <g fill="url(#gradient)">
    <path d="M5.65 7.13h6.244q3.993 0 6.046 1.107 2.081 1.107 2.081 3.901 0 1.688-.815 2.85-.788 1.162-2.278 1.411v.139q.984.221 1.8.72.843.47 1.321 1.41.478.941.478 2.49 0 2.685-1.996 4.207-1.969 1.522-5.372 1.522H5.65zm4.247 7.83h2.475q1.856 0 2.559-.553.731-.58.731-1.715 0-1.135-.844-1.633-.843-.498-2.671-.498h-2.25zm0 3.321v5.147h2.784q1.912 0 2.672-.72.76-.747.76-1.964 0-1.107-.788-1.771-.76-.692-2.785-.692zM26.32 5.857q.929 0 1.604.443.675.415.675 1.577 0 1.134-.675 1.577-.675.443-1.603.443-.956 0-1.631-.443-.647-.443-.647-1.577 0-1.162.647-1.577.675-.443 1.63-.443zm2.082 5.922v15.108h-4.19V11.779z" />
  </g>
</svg>