<svg width="1.1rem" height="1.1rem" fill="#5f5f5f" stroke="#000000" stroke-width=".067rem" viewBox="0 0 33.867 33.867" xmlns="http://www.w3.org/2000/svg">
   <path d="M6.61 1.309h9.386q6.004 0 9.09 1.69 3.13 1.692 3.13 5.963 0 2.579-1.226 4.355-1.184 1.776-3.425 2.156v.212q1.48.338 2.706 1.099 1.268.719 1.987 2.156.719 1.438.719 3.806 0 4.101-3.002 6.427-2.96 2.325-8.076 2.325H6.609zm6.384 11.965h3.72q2.792 0 3.849-.845 1.099-.888 1.099-2.622 0-1.733-1.269-2.494-1.268-.761-4.016-.761h-3.383zm0 5.074v7.865h4.186q2.875 0 4.017-1.1 1.141-1.141 1.141-3.002 0-1.69-1.183-2.706-1.142-1.057-4.186-1.057z" />
</svg>