<svg width="1.1rem" height="1.1rem" fill="#bfbfbf" stroke="#000000" stroke-width=".066rem" viewBox="0 0 33.867 33.867" xmlns="http://www.w3.org/2000/svg">
  <g>
    <path d="M12.78 9.177q-2.387 0-3.649 1.784-1.262 1.783-1.262 4.884 0 3.129 1.152 4.857 1.18 1.702 3.76 1.702 1.18 0 2.387-.275 1.208-.274 2.607-.768v3.485q-1.29.521-2.552.768t-2.826.247q-3.046 0-4.995-1.235-1.948-1.262-2.881-3.512-.933-2.278-.933-5.296 0-2.964 1.07-5.242Q5.728 8.3 7.76 7.01q2.058-1.29 5.022-1.29 1.454 0 2.909.384 1.482.357 2.826.988l-1.344 3.376q-1.098-.522-2.223-.906-1.098-.384-2.168-.384zM29.987 10.33q.302 0 .713.027.412.027.659.082l-.302 3.842q-.22-.055-.576-.082-.357-.055-.631-.055-1.043 0-2.004.384-.96.357-1.564 1.18-.576.823-.576 2.25v7.629h-4.089V10.604h3.1l.605 2.524h.192q.658-1.152 1.81-1.975 1.153-.824 2.663-.824z" />
  </g>
</svg>