<svg width="1.1rem" height="1.1rem" fill="#b76800" stroke="#000000" stroke-width=".067rem" viewBox="0 0 33.867 33.867" xmlns="http://www.w3.org/2000/svg">
  <g>
    <path d="M10.05 9.347q-2.443 0-3.734 1.785-1.291 1.786-1.291 4.89 0 3.133 1.179 4.864 1.207 1.703 3.846 1.703 1.207 0 2.442-.275t2.667-.77v3.49q-1.32.522-2.61.77-1.292.247-2.892.247-3.116 0-5.11-1.237Q2.556 23.55 1.6 21.298q-.954-2.28-.954-5.303 0-2.967 1.094-5.247 1.095-2.28 3.173-3.572 2.105-1.291 5.137-1.291 1.488 0 2.975.385 1.516.357 2.892.989l-1.376 3.379q-1.123-.522-2.274-.907-1.122-.384-2.217-.384zM33.153 10.775v15h-3.2l-.562-1.922h-.224q-.73 1.154-2.022 1.676-1.263.522-2.695.522-2.47 0-3.958-1.292-1.487-1.318-1.487-4.203v-9.78h4.182v8.763q0 1.621.59 2.445.59.797 1.88.797 1.91 0 2.611-1.264.702-1.29.702-3.681v-7.06z" />
  </g>
</svg>