<svg width="1.1rem" height="1.1rem" fill="#cfb300" stroke="#000000" stroke-width=".067rem" viewBox="0 0 33.867 33.867" xmlns="http://www.w3.org/2000/svg">
   <g>
      <path d="M13.952 25.724l-1.364-4.459h-6.82l-1.363 4.46H.129L6.74 6.917h4.853l6.636 18.806zm-2.308-7.79L10.28 13.58q-.131-.446-.34-1.128-.21-.682-.42-1.39-.21-.708-.341-1.233-.132.525-.368 1.312-.21.76-.42 1.468-.183.682-.288.971l-1.338 4.354zM33.414 11.403v14.321h-2.99l-.524-1.836h-.21q-.682 1.102-1.889 1.6-1.18.498-2.518.498-2.308 0-3.698-1.232-1.39-1.26-1.39-4.013v-9.338h3.908v8.367q0 1.548.55 2.335.552.76 1.758.76 1.784 0 2.44-1.206.655-1.233.655-3.515v-6.741z" />
   </g>
</svg>