<svg width="1.1rem" height="1.1rem" fill="#848484" stroke="#000000" stroke-width=".067rem" viewBox="0 0 33.867 33.867" xmlns="http://www.w3.org/2000/svg">
  <g>
    <path d="M8.282 26.146H4.325V5.95h10.863v3.508H8.282v5.204h6.428v3.507H8.282zM24.563 10.42q3.002 0 4.755 1.838 1.753 1.81 1.753 5.176v2.037h-9.35q.054 1.782.983 2.8.956 1.018 2.63 1.018 1.38 0 2.523-.283 1.169-.31 2.39-.933v3.253q-1.089.565-2.257.82-1.169.283-2.842.283-2.178 0-3.852-.849-1.673-.877-2.629-2.602-.956-1.754-.956-4.44 0-2.688.85-4.498.876-1.81 2.417-2.716 1.54-.905 3.585-.905zm.027 2.998q-1.169 0-1.912.792-.744.792-.877 2.46h5.551q-.026-1.386-.717-2.319-.664-.933-2.045-.933z" />
  </g>
</svg>