<svg width="1.1rem" height="1.1rem" fill="#5e5e5e" stroke="#000000" stroke-width=".067rem" viewBox="0 0 33.867 33.867" xmlns="http://www.w3.org/2000/svg">
   <g>
      <path d="M6.966 5.454q4.138 0 6.027 1.799 1.918 1.769 1.918 4.887 0 1.889-.78 3.508-.779 1.62-2.608 2.609-1.799.989-4.917.989H4.657v7.616H.13V5.454zm-.24 3.718H4.657v6.356h1.5q1.918 0 3.028-.75 1.139-.78 1.139-2.488 0-3.118-3.598-3.118zM23.067 4.074v5.307q0 .93-.06 1.83-.06.899-.12 1.409h.18q.66-1.02 1.769-1.71 1.11-.719 2.878-.719 2.759 0 4.468 2.159 1.709 2.129 1.709 6.296 0 4.198-1.739 6.357-1.74 2.159-4.558 2.159-1.799 0-2.848-.63-1.02-.66-1.679-1.47h-.3l-.75 1.8H18.6V4.074zm3.208 9.685q-1.739 0-2.458 1.11-.72 1.079-.75 3.268v.48q0 2.368.69 3.657.72 1.26 2.578 1.26 1.38 0 2.189-1.26.81-1.289.81-3.688 0-2.398-.84-3.598-.81-1.229-2.219-1.229z" />
   </g>
</svg>