<svg width="1.1rem" height="1.1rem" fill="#b3a789" stroke="#000000" stroke-width=".067rem" viewBox="0 0 33.867 33.867" xmlns="http://www.w3.org/2000/svg">
   <g>
      <path d="M7.252 24.948L3.21 11.792h-.094l.07 1.41q.047.94.094 2.02t.047 1.926v7.8H.157V8.174h4.84l3.97 12.827h.07l4.205-12.827h4.84v16.774h-3.313v-7.94q0-.8.024-1.833.047-1.034.07-1.95l.07-1.41h-.093l-4.323 13.133zM29.311 11.886q2.068 0 3.313 1.128 1.245 1.104 1.245 3.57v8.364h-3.5v-7.494q0-1.386-.494-2.068-.493-.704-1.574-.704-1.597 0-2.185 1.104-.587 1.08-.587 3.124v6.038h-3.5V12.12h2.678l.47 1.644h.187q.611-.986 1.668-1.433 1.081-.446 2.28-.446z" transform="scale(1.1 1.2)" />
   </g>
</svg>