<svg width="1.1rem" height="1.1rem" fill="#848484" stroke="#000000" stroke-width=".067rem" viewBox="0 0 33.867 33.867" xmlns="http://www.w3.org/2000/svg">
  <g>
    <path d="M29.528 4.737q.83 0 1.25.429.428.42.428 1.356V9.7h-1.33V6.853q0-1.054-.732-1.054-.527 0-.75.375-.223.375-.223 1.08V9.7h-1.33V6.853q0-1.054-.732-1.054-.554 0-.768.42-.205.41-.205 1.187V9.7h-1.33V4.826h1.017l.179.625h.071q.224-.375.607-.544.393-.17.813-.17.535 0 .901.179.375.17.58.535h.116q.224-.375.616-.544.402-.17.822-.17z" fill="#ffffff" stroke="#000000" stroke-width=".05rem" stroke-opacity=".8" />
    <g aria-label="Fe" style="-inkscape-font-specification:'sans-serif Bold';text-align:center" letter-spacing="-2.381">
      <path d="M7.968 25.98h-4.17V5.994h11.447v3.471H7.968v5.15h6.774v3.47H7.968zM22.174 10.418q3.162 0 5.01 1.819 1.847 1.791 1.847 5.122v2.015h-9.852q.056 1.763 1.035 2.771 1.008 1.008 2.771 1.008 1.456 0 2.66-.28 1.23-.308 2.518-.924v3.219q-1.147.56-2.379.811-1.231.28-2.995.28-2.295 0-4.058-.84-1.763-.867-2.771-2.574-1.008-1.736-1.008-4.395 0-2.658.896-4.45.924-1.791 2.547-2.687 1.623-.895 3.779-.895zm.028 2.966q-1.232 0-2.016.784-.783.784-.923 2.435h5.85q-.029-1.371-.756-2.295-.7-.924-2.155-.924z" />
    </g>
  </g>
</svg>