<svg width="1rem" height="1rem" fill="#bcbcbc" stroke="#000000" stroke-width=".067rem" viewBox="0 0 33.867 33.867" xmlns="http://www.w3.org/2000/svg">
   <g>
      <path d="M8.459 2.996q4.857 0 7.074 2.112 2.253 2.077 2.253 5.738 0 2.217-.915 4.118-.915 1.9-3.062 3.062-2.112 1.162-5.773 1.162H5.748v8.94H.433V2.996zm-.282 4.365H5.748v7.462h1.76q2.253 0 3.555-.88 1.338-.915 1.338-2.921 0-3.661-4.224-3.661zM30.211 24.291q.88 0 1.69-.14.81-.177 1.619-.458V27.6q-.845.387-2.112.633-1.232.247-2.71.247-1.725 0-3.098-.563-1.337-.564-2.147-1.936-.774-1.373-.774-3.872v-9.257h-2.5v-2.218l2.887-1.76 1.513-4.047h3.344V8.91h5.385v3.942h-5.385v9.257q0 1.091.634 1.654.633.528 1.654.528z" />
   </g>
</svg>