<svg width="1.1rem" height="1.1rem" fill="#a3893c" stroke="#000000" stroke-width=".067rem" viewBox="0 0 33.867 33.867" xmlns="http://www.w3.org/2000/svg">
   <g>
      <path d="M6.246 5.715q4.24 0 6.245 1.54 2.033 1.539 2.033 4.676 0 1.423-.552 2.498-.523 1.045-1.423 1.8-.872.727-1.888 1.192l6.1 9.033h-4.88l-4.938-7.959H4.59v7.959H.204V5.715zm-.32 3.602H4.59v5.606h1.423q2.179 0 3.108-.727.959-.726.959-2.149 0-1.481-1.017-2.091-1.016-.64-3.137-.64zM23.354 4.379V8.88q0 1.19-.087 2.266-.058 1.045-.116 1.481h.232q.755-1.22 1.946-1.772 1.191-.552 2.643-.552 2.556 0 4.125 1.394 1.568 1.366 1.568 4.416v10.34h-4.328v-9.266q0-3.427-2.556-3.427-1.946 0-2.7 1.365-.727 1.336-.727 3.863v7.465h-4.328V4.379z" />
   </g>
</svg>