<svg width="1.1rem" height="1.1rem" fill="#8f8f8f" stroke="#000000" stroke-width=".067rem" viewBox="0 0 33.867 33.867" xmlns="http://www.w3.org/2000/svg">
  <g>
    <path d="M13.94 26.242l-1.356-4.435H5.801l-1.357 4.435H.192L6.766 7.536h4.827l6.6 18.706zm-2.295-7.749l-1.357-4.33q-.13-.444-.339-1.122-.209-.678-.417-1.383-.21-.704-.34-1.226-.13.522-.365 1.304-.209.757-.417 1.461-.183.679-.287.966l-1.33 4.33zM24.846 11.736q2.635 0 4.122 2.088h.104l.314-1.827h3.287v14.271q0 3.053-1.8 4.644-1.8 1.591-5.323 1.591-1.513 0-2.817-.182-1.279-.183-2.505-.652v-3.105q2.61 1.096 5.557 1.096 3 0 3-3.235v-.287q0-.418.027-.887.026-.496.078-.861h-.105q-.73 1.122-1.748 1.617-1.017.496-2.295.496-2.531 0-3.966-1.93-1.409-1.957-1.409-5.427 0-3.496 1.461-5.453 1.461-1.957 4.018-1.957zm1.226 3.157q-2.74 0-2.74 4.305 0 4.252 2.792 4.252 1.487 0 2.192-.834.73-.861.73-2.975v-.47q0-2.295-.704-3.286-.704-.992-2.27-.992z" />
  </g>
</svg>