<svg width="1.1rem" height="1.1rem" fill="#bf7360" stroke="#000000" stroke-width=".067rem" viewBox="0 0 33.867 33.867" xmlns="http://www.w3.org/2000/svg">
   <g>
      <path d="M18.862 26.051h-5.638L4.093 10.195h-.118l.118 2.995q.088 1.498.146 2.995v9.866H.275V5.086h5.609l9.102 15.71h.088l-.117-2.878q-.059-1.44-.088-2.907V5.086h3.993zM27.276 9.696q3.23 0 4.933 1.41 1.732 1.38 1.732 4.257v10.688h-3.054l-.851-2.173h-.118q-1.027 1.292-2.173 1.88-1.145.587-3.141.587-2.144 0-3.553-1.233-1.41-1.234-1.41-3.847 0-2.555 1.791-3.758 1.791-1.204 5.374-1.351l2.79-.088v-.705q0-1.263-.676-1.85-.646-.587-1.82-.587-1.175 0-2.29.352-1.117.323-2.233.822l-1.438-2.965q1.262-.646 2.848-1.028 1.586-.411 3.289-.411zm2.32 8.926l-1.704.06q-2.114.058-2.936.763-.822.704-.822 1.85 0 .998.587 1.438.587.411 1.527.411 1.41 0 2.378-.822.97-.851.97-2.378z" transform="scale(.98519 1.01503)" />
   </g>
</svg>