<svg width="1.1rem" height="1.1rem" fill="#fed558" stroke="#000000" stroke-width=".067rem" viewBox="0 0 33.867 33.867" xmlns="http://www.w3.org/2000/svg">
   <path d="M26.016 22.216q0 3.752-2.725 6.004-2.686 2.211-7.663 2.211-4.463 0-7.978-1.698v-5.57q2.014.87 4.147 1.62 2.172.711 4.305.711 2.212 0 3.12-.83.949-.868.949-2.172 0-1.066-.75-1.817-.712-.75-1.936-1.382-1.225-.671-2.805-1.422-.987-.474-2.132-1.106-1.146-.671-2.212-1.62-1.027-.987-1.699-2.37-.671-1.382-.671-3.317 0-3.792 2.567-5.885 2.568-2.133 6.991-2.133 2.212 0 4.187.513 1.975.514 4.187 1.462l-1.936 4.66q-1.935-.79-3.475-1.224-1.54-.434-3.16-.434-1.699 0-2.607.79-.908.79-.908 2.054 0 1.5 1.342 2.37 1.343.868 3.99 2.132 2.172 1.027 3.673 2.133 1.54 1.106 2.37 2.607.83 1.501.83 3.713z" />
</svg>