<svg width="1.1rem" height="1.1rem" fill="#6d6a86" stroke="#000000" stroke-width=".067rem" viewBox="0 0 33.867 33.867" xmlns="http://www.w3.org/2000/svg">
   <g>
      <path d="M3.17 8.451q0 2.145-1.559 3.432-1.535 1.265-4.38 1.265-2.55 0-4.56-.971V8.993q1.151.497 2.37.926 1.242.406 2.461.406 1.265 0 1.784-.474.542-.496.542-1.242 0-.61-.43-1.038-.406-.43-1.105-.79-.7-.384-1.603-.813-.565-.271-1.22-.632-.654-.384-1.264-.926-.587-.564-.97-1.355-.385-.79-.385-1.896 0-2.168 1.468-3.364 1.467-1.22 3.996-1.22 1.264 0 2.393.294 1.13.294 2.394.835L1.995.37Q.89-.083.008-.331-.872-.58-1.798-.58q-.97 0-1.49.452-.52.451-.52 1.174 0 .858.768 1.355.768.496 2.28 1.219 1.243.587 2.1 1.219.881.632 1.355 1.49t.474 2.122zM12.833.369q1.987 0 3.183 1.083 1.197 1.061 1.197 3.432v8.038h-3.364V5.719q0-1.332-.474-1.986-.475-.678-1.513-.678-1.535 0-2.1 1.061-.564 1.039-.564 3.003v5.803H5.834V.594h2.573l.452 1.58h.18q.588-.947 1.604-1.376 1.038-.43 2.19-.43z" transform="matrix(1.33577 0 0 1.30799 10.259 8.915)" />
   </g>
</svg>