<svg width="1.1rem" height="1.1rem" fill="#613d1a" stroke="#000000" stroke-width=".736rem" xmlns="http://www.w3.org/2000/svg" viewBox="0 0 368.64 368.64">
  <path d="M96.45 197.87v51.536c0 33.335 18.57 62.317 45.924 77.203 15.304 8.327 29.625 18.982 41.945 31.301v.002l.002-.002c12.453-12.453 26.475-22.883 41.944-31.301 27.355-14.886 45.924-43.869 45.924-77.203v-51.537zM283.52 164.39c-4.565-42.577-35.866-77.019-76.643-86.443 4.631-6.203 10.368-12.8 17.172-18.672 4.385-3.785 9.212-7.27 14.474-10.15a8.239 8.239 0 003.773-10.087l-8.51-22.933c-1.81-4.875-7.638-6.882-12.072-4.138-9.937 6.15-26.108 18.825-36.801 40.705-3.303 6.757-6.086 14.385-7.997 22.981-48.173 3.533-86.7 41.213-91.797 88.739-.616 5.743 3.904 10.763 9.66 10.763H273.86c5.793-.001 10.275-5.03 9.66-10.765z" />
</svg>