<svg width="1rem" height="1rem" fill="#921e1e" stroke="#000000" stroke-width=".063rem" xmlns="http://www.w3.org/2000/svg" viewBox="0 0 31.769 31.769">
	<path d="M26.42 7.542c-1.413-.911-3.054-.847-4.874-.594 2.812-1.479 3.521-3.493 3.628-4.887A1.413 1.413 0 0023.548.555c-3.872.599-5.438 3.331-6.039 5.015a8.86 8.86 0 00-1.287-2.542C15.158 1.586 13.702.59 11.88.056a1.397 1.397 0 00-1.779 1.15l-.017.119a1.395 1.395 0 00.99 1.531c1.196.353 2.115.976 2.792 1.889.588.794.924 1.721 1.109 2.61-2.56-.542-4.411-2.142-8.197-.353C2.951 8.809.002 13.54 2.216 20.724c1.781 5.79 6.019 9.738 8.252 11.045h11.566c2.576-1.542 6.77-5.061 7.871-11.409 1.22-7.035-.397-10.828-3.485-12.818zM9.626 11.817c-.349.191-3.283 1.929-2.213 5.728a1.459 1.459 0 01-1.404 1.853c-.638 0-1.222-.42-1.402-1.063-1.39-4.933 1.781-8.103 3.651-9.088a1.46 1.46 0 011.969.608 1.452 1.452 0 01-.601 1.962z" />
</svg>