<svg width="1.1rem" height="1.1rem" fill="#5d0281" stroke="#000000" stroke-width=".544rem" xmlns="http://www.w3.org/2000/svg" viewBox="0 0 272.16 272.16">
  <path d="M170.129 121.03c-20.763 12.348-41.617 13.137-60.703-3.867l6.739-10.635c15.599 13.9 32.067 12.657 48.946 2.618zm-40.285 145.696h12.413c3.756-19.3 15.097-33.007 26.252-46.49 14.05-16.978 25.232-31.678 29.72-55.994-17.108 11.251-35.108 14.35-53.924 7.27l3.389-12.668c17.708 6.663 36.75 1.583 52.097-10.347.389-21.505-7.246-42.47-21.296-56.24-8.283-8.122-18.211-13.28-28.767-15.553 1.073-6.987 3.173-14.946 5.176-21.656 3.8-12.714 8.627-24.143 13.812-36.058l-11.323-6.908c-5.63 12.944-10.82 25.517-14.91 39.287-1.148-15.463-2.89-30.602-4.841-45.935l-12.616 2.248c1.98 15.604 3.768 31.01 4.915 46.755-4.929-15.15-11.508-28.737-18.63-42.56l-10.869 7.855c6.037 11.717 11.614 22.936 16.107 35.698 2.466 7.008 4.5 14.083 6.005 21.238-11.398 2.43-21.146 7.938-28.947 15.588-11.222 11.011-18.349 26.474-20.564 43.458 7.802 6.559 22.85 10.31 31.534 11.884l-1.673 13.184c-10.233-1.855-21.243-4.645-30.55-10.503.296 8.847 1.872 17.919 4.833 26.866 10.277 7.159 27.915 10.843 39.185 11.502l-.525 13.289c-10.242-.601-20.85-2.352-30.523-6.553 5.211 9.14 11.778 17.01 18.269 24.859 11.155 13.477 22.5 27.19 26.251 46.484z" />
</svg>