<svg xmlns="http://www.w3.org/2000/svg" viewBox="0 0 429.543 429.543" width="512" height="512">
	<path d="M405.478 218.71a65.07 65.07 0 00.53-8.152c0-28.077-17.909-51.963-42.923-60.882-8.049-21.407-28.703-36.643-52.922-36.643a56.349 56.349 0 00-21.059 4.069 56.34 56.34 0 00-21.058-4.069 56.249 56.249 0 00-31.164 9.37c-10.16-15.028-27.359-24.908-46.865-24.908-28.641 0-52.289 21.303-56.007 48.924-27.751 3.601-49.191 27.309-49.191 56.042 0 1.725.09 3.43.241 5.115-26.254 7.813-45.405 32.121-45.405 60.914 0 35.103 28.456 63.558 63.558 63.558H365.984c35.102 0 63.559-28.455 63.559-63.558 0-20.173-9.409-38.136-24.065-49.78z" fill="#00953a" />
	<path d="M236.883 122.403c-10.16-15.028-27.359-24.908-46.865-24.908-28.641 0-52.289 21.303-56.007 48.924-27.751 3.601-49.191 27.309-49.191 56.042 0 1.725.09 3.43.241 5.115-26.254 7.813-45.405 32.121-45.405 60.914 0 35.103 28.456 63.558 63.558 63.558H237.6V121.947c-.239.153-.481.3-.717.456z" opacity=".2" fill="#222" />
	<path d="M365.933 189.275c0-17.566-14.244-31.807-31.806-31.807-17.57 0-31.81 14.241-31.81 31.807 0 17.567 14.239 31.808 31.81 31.808 17.562 0 31.806-14.241 31.806-31.808z" fill="#fff" />
	<circle cx="334.125" cy="189.275" r="10.61" fill="#ff9500" />
	<path d="M334.127 157.468c-17.57 0-31.81 14.241-31.81 31.807 0 17.567 14.239 31.808 31.81 31.808v-63.615z" opacity=".2" fill="#222" />
	<path d="M306.778 183.262a74.76 74.76 0 00-10.805.791c-13.054-21.444-36.648-35.766-63.59-35.766a74.138 74.138 0 00-28.372 5.616c-13.547-14.176-32.624-23.021-53.779-23.021a74.85 74.85 0 00-12.224 1.004 56.158 56.158 0 00-3.998 14.533c-27.751 3.601-49.191 27.309-49.191 56.042 0 1.725.09 3.43.241 5.115-26.254 7.813-45.405 32.121-45.405 60.914 0 35.103 28.456 63.558 63.558 63.558h203.564c41.086 0 74.393-33.307 74.393-74.393s-33.306-74.393-74.392-74.393z" opacity=".2" fill="#222" />
	<g>
		<path d="M279.436 187.909c-3.556 0-7.049.268-10.467.766-12.647-20.774-35.504-34.648-61.604-34.648a71.828 71.828 0 00-27.486 5.44c-13.123-13.733-31.605-22.302-52.1-22.302-32.845 0-60.538 21.98-69.224 52.027C25.215 195.52 0 224.797 0 259.978c0 39.803 32.266 72.069 72.069 72.069h207.366c39.803 0 72.069-32.267 72.069-72.069.001-39.802-32.266-72.069-72.068-72.069z" fill="#77bc1f" />
		<path d="M127.779 137.165c-32.845 0-60.538 21.98-69.224 52.027C25.215 195.52 0 224.797 0 259.978c0 39.803 32.266 72.069 72.069 72.069h98.906V151.586c-12.037-9.042-26.98-14.421-43.196-14.421z" opacity=".5" fill="#218649" />
		<path d="M312.904 262.156c0-17.566-14.244-31.807-31.806-31.807-17.57 0-31.81 14.241-31.81 31.807 0 17.567 14.239 31.808 31.81 31.808 17.562 0 31.806-14.241 31.806-31.808z" fill="#fff" />
		<circle cx="281.097" cy="262.156" r="10.61" fill="#ff9500" />
		<path d="M281.099 230.349c-17.57 0-31.81 14.241-31.81 31.807 0 17.567 14.239 31.808 31.81 31.808v-63.615z" opacity=".2" fill="#222" />
		<g>
			<path d="M101.616 264.191c0-17.566-14.244-31.807-31.806-31.807-17.57 0-31.81 14.241-31.81 31.807 0 17.567 14.239 31.808 31.81 31.808 17.562 0 31.806-14.241 31.806-31.808z" fill="#fff" />
			<circle cx="69.809" cy="264.191" r="10.61" fill="#ff9500" />
			<path d="M69.811 232.384c-17.57 0-31.81 14.241-31.81 31.807 0 17.567 14.239 31.808 31.81 31.808v-63.615z" opacity=".2" fill="#222" />
		</g>
		<g>
			<path d="M207.561 221.082c0-17.566-14.244-31.807-31.806-31.807-17.57 0-31.81 14.241-31.81 31.807 0 17.567 14.239 31.808 31.81 31.808 17.561.001 31.806-14.24 31.806-31.808z" fill="#fff" />
			<circle cx="175.753" cy="221.082" r="10.61" fill="#ff9500" />
			<path d="M175.755 189.275c-17.57 0-31.81 14.241-31.81 31.807 0 17.567 14.239 31.808 31.81 31.808v-63.615z" opacity=".2" fill="#222" />
		</g>
	</g>
</svg>