<svg width="1.1rem" height="1.1rem" fill="#075900" stroke="#000000" stroke-width=".544rem" xmlns="http://www.w3.org/2000/svg" viewBox="0 0 272.16 272.16">
  <path d="M39.374 98.277c32.667-1.157 65.855 11.702 94.094 28.399 5.845-3.504 11.85-6.886 17.987-10.04-4.497-4.64-8.962-9.126-13.681-13.289C99.893 69.932 72.424 55.443 29.032 59.09L43.95 90.175a113.164 113.164 0 00-4.576 8.102m42.059-44.453c20.36 7.767 39.808 20.61 56.282 34.143 16.512-13.486 35.572-25.431 55.513-32.97-34.297-21.136-77.03-21.438-111.795-1.173zm163.437 6.721c-38.853-3.286-63.206 7.252-98.14 35.147 5.495 4.948 10.645 10.246 15.768 15.571 22.108-10.092 45.606-16.814 69.226-16.24l-1.842-3.16zm-31.191 47.437c-22.07 2.99-45.08 12.217-68.754 25.819 32.083 20.774 57.127 44.926 84.368 71.434 11.919-19.266 17.085-40.498 16.076-63.072l23.44-26.705c-19.771-7.375-32.237-10.57-55.13-7.476zm8.712 107.14c-28.638-27.922-54.78-53.045-88.912-74.451-34.255-21.486-66.105-31.744-94.195-30.507-13.443.568-23.393 4.184-35.933 8.861 8.4 8.633 16.448 16.947 24.098 26.297-1.412 61.857 48.399 112.304 110.293 111.497 31.828-.414 63.38-14.563 84.649-41.698z" />
</svg>