<svg width="1.1rem" height="1.1rem" fill="#ac6700" stroke="#000000" stroke-width=".544rem" xmlns="http://www.w3.org/2000/svg" viewBox="0 0 272.16 272.16">
  <path d="M161.809 75.682c-5.446-14.086-24.477-19.978-37.361-12.57l-2.358 1.364c-1.12-18.28.355-35.08 2.875-53.212l-14.076-1.952c-2.206 15.886-3.717 31.23-3.342 47.28L84.683 16.988l-12.291 7.068 22.62 39.238c-13.645-8.408-27.615-14.569-42.59-20.268l-5.065 13.295c17.226 6.557 32.336 13.489 47.594 23.823l-2.312 1.338c-11.88 6.74-16.896 23.802-10.01 35.724 1.669 2.895 4.7 6.074 6.826 8.574l26.454-15.344 6.282 10.847L97.7 135.492l38.436 45.226 27.666-16.267 6.333 10.8-25.764 15.152 61.574 72.445 18.858-10.84c-16.15-41.495-29.933-83.653-44.542-125.669l-24.694 14.502-6.334-10.8 26.804-15.75c-4.563-12.9-9.269-25.775-14.228-38.609" />
</svg>