<svg width="1.1rem" height="1.1rem" fill="#911111" stroke="#000000" stroke-width=".067rem" xmlns="http://www.w3.org/2000/svg" viewBox="0 0 260 260">
	<path d="M257.776 159.912c-.334-6.852-1.865-13.514-5.053-19.407-5.416-10.009-15.156-17.13-26.105-19.987-16.358-4.268-28.911 4.088-35.271 5.142-.17-40.33 12.513-79.84 36.352-112.53a7.01 7.01 0 00.429-7.6 7.003 7.003 0 00-6.76-3.5c-83.322 8.35-144.161 63.92-156.046 138.9a32.84 32.84 0 01-6.61-2.6 40.222 40.222 0 00-15.703-3.16c-12.152 0-23.859 5.59-31.529 15.043-20.042 24.701-5.539 64.689 13.775 85.234C37.944 248.946 55.433 258 74.166 258c30.002 0 55.328-22.601 66.016-49.553 6.15-15.508 9.205-35.791 1.257-51.215-6.693-12.989-20.175-21.555-34.747-22.039a41.622 41.622 0 00-1.369-.023 40.218 40.218 0 00-15.703 3.16c-3.121 1.65-6.58 2.8-10.259 3.38C90.098 78.42 139.262 30.49 207.559 18.1c-19.751 32.1-30.21 69.17-30.17 106.94a33.074 33.074 0 01-7.009-2.71 40.222 40.222 0 00-15.703-3.16c-10.688 0-20.399 4.15-27.648 10.91 1.408-1.313 17.322 9.719 23.936 23.94 4.584 9.855 5.672 24.095 4.212 36.281-2.37 19.783-12.015 35.091-12.156 34.97 11.954 10.29 26.76 16.73 42.813 16.73 30.44 0 56.033-23.238 66.467-50.715 3.582-9.435 5.999-20.637 5.475-31.374zM36.278 186c-7.707 0-13.958-6.27-13.958-14s6.251-14 13.958-14 13.958 6.27 13.958 14-6.251 14-13.958 14z" />
</svg>