<svg width="1rem" height="1rem" stroke="#000000" stroke-width=".624rem" xmlns="http://www.w3.org/2000/svg" viewBox="0 0 312.096 312.096">
	<path fill="#8d3782" d="M146.566 36.589c12.717 18.758 14.898 44.646 13.8 66.205 6.534-10.644 16.756-19.354 32.171-21.401-2.708-22.631 15.239-39.278 30.53-47.849-.01-.212-.025-.486-.036-.657C220.577 27.897 205.592 0 177.774 0c-11.407 0-23.843 4.604-36.961 13.681-3.568 2.47-6.628 5.145-9.284 7.985 5.843 3.883 10.902 8.818 15.037 14.923z" />
	<path fill="#e478d6" d="M40.099 78.449c12.927.536 40.273 4.593 49.112 28.221 5.049-1.836 10.149-2.799 15.169-2.799 8.787 0 16.534 2.772 23.151 6.755 5.025 3.026 9.385 6.749 13.044 10.509a86.222 86.222 0 016.172 7.078c.324-1.877.652-3.977.971-6.172 3.132-21.56 5.211-57.18-9.942-79.521-3.47-5.111-7.653-9.178-12.531-12.342a42.972 42.972 0 00-4.634-2.62 45.999 45.999 0 00-4.873-2.033c-3.669-1.292-7.615-2.248-11.92-2.793-22.258-2.804-39.201 1.659-50.039 13.204-13.875 14.799-14.136 37.138-14.025 41.778l.345.735zM202.956 78.747c.113 1.719.414 3.495.88 5.313.337 1.341.688 2.689 1.228 4.088.14.357.223.707.352 1.062 5.323 14.662 2.284 27.768-4.168 38.494 16.611-9.761 37.443-18.833 57.746-18.833 10.217 0 19.424 2.292 27.579 6.786 1.3-3.669 2.252-7.599 2.791-11.845 2.578-20.516-.964-36.423-10.532-47.271-13.754-15.594-36.512-16.808-43.16-16.808-.533 0-.968.005-1.31.016-.161.07-.409.192-.606.277a71.976 71.976 0 00-5.571 2.856 77.486 77.486 0 00-5.577 3.454c-9.504 6.481-20.677 17.417-19.652 32.411z" />
	<path fill="#5c1d54" d="M281.912 125.207c-6.722-3.809-14.312-5.727-22.919-5.727-25.248 0-52.63 16.5-68.951 28.257a236.269 236.269 0 00-4.853 3.578c.005.021.005.036.011.06a80.63 80.63 0 019.17 2.294c5.049 1.582 10.118 3.746 14.846 6.641 10.672 6.53 19.418 16.741 21.474 32.183 1.559-.187 3.112-.316 4.646-.316 22.307 0 36.609 19.444 43.103 30.883.259-.011.58-.026.781-.037 4.319-2.123 25.523-13.473 31.359-34.175 4.044-14.359-.052-30.525-12.164-48.035-2.449-3.542-5.085-6.623-7.906-9.274a47.27 47.27 0 00-4.112-3.415 42.144 42.144 0 00-4.485-2.917zM196.358 286.568a56.765 56.765 0 0011.926 2.796c22.25 2.796 39.203-1.657 50.036-13.204 13.877-14.8 14.131-37.138 14.027-41.777-.093-.197-.223-.477-.347-.735a78.569 78.569 0 00-2.869-5.463 82.301 82.301 0 00-3.572-5.686c-6.276-9.083-16.529-19.713-30.209-19.713-.653 0-1.331.155-1.994.202a30.584 30.584 0 00-5.303.864c-1.361.353-2.718.673-4.096 1.212-.357.135-.709.228-1.062.357-5.049 1.833-10.149 2.801-15.177 2.801-8.787 0-16.528-2.77-23.146-6.757 10.895 18.595 20.848 42.476 18.237 64.918-.853 7.328-3.058 14.044-6.451 20.185z" />
	<path fill="#a3058e" d="M89.024 278.552c.01.213.021.481.031.653 2.452 4.971 17.44 32.891 45.272 32.891 11.407 0 23.84-4.604 36.954-13.681 3.567-2.475 6.628-5.146 9.284-7.984a47.109 47.109 0 003.387-4.049 44.702 44.702 0 002.899-4.469c2.869-5.064 4.702-10.61 5.417-16.752 3.117-26.843-15.162-57.456-27.895-75.113a264.964 264.964 0 00-3.641-4.93 80.28 80.28 0 01-2.312 9.253c-1.584 5.08-3.774 10.181-6.685 14.929-6.537 10.636-16.756 19.351-32.174 21.396 2.704 22.639-15.243 39.286-30.537 47.856zM53.101 203.221c-10.216 0-19.423-2.289-27.584-6.788a56.706 56.706 0 00-2.789 11.848c-2.581 20.516.961 36.417 10.524 47.271 13.756 15.597 36.514 16.809 43.163 16.809.525 0 .965-.006 1.31-.016.158-.067.414-.191.608-.285a68.875 68.875 0 005.569-2.858 77.883 77.883 0 005.536-3.423c9.518-6.473 20.723-17.424 19.692-32.43-.117-1.72-.419-3.49-.875-5.313-.339-1.341-.689-2.688-1.23-4.085-.137-.357-.223-.699-.35-1.057-5.318-14.659-2.286-27.771 4.168-38.494-16.607 9.754-37.433 18.821-57.742 18.821z" />
	<path fill="#d4a7ce" d="M21.589 180.562a48.204 48.204 0 004.109 3.412 42.306 42.306 0 004.492 2.91c6.716 3.806 14.31 5.728 22.916 5.728 25.292 0 52.659-16.503 68.962-28.258 1.755-1.264 3.42-2.49 4.906-3.624a79.95 79.95 0 01-9.253-2.315c-5.048-1.579-10.128-3.749-14.846-6.638-10.669-6.527-19.413-16.744-21.471-32.185-.052-.389-.142-.743-.184-1.14-.161-1.432-.425-2.768-.728-4.067a29.845 29.845 0 00-1.74-5.287c-5.965-13.504-20.668-18.082-32.206-19.514a80.688 80.688 0 00-6.713-.551 91.274 91.274 0 00-3.223-.073c-1.235 0-2.186.031-2.954.062-.259.011-.578.021-.779.031-4.321 2.128-25.521 13.479-31.359 34.186-4.047 14.359.046 30.521 12.164 48.032 2.45 3.553 5.086 6.639 7.907 9.291z" />
	<path fill="#ffffff" d="M141.168 172.038a364.039 364.039 0 00-2.651 4.981c-8.658 16.611-13.202 28.796-10.802 30.251 2.403 1.46 11.11-8.197 21.836-23.53.267-.377.531-.766.8-1.159.797-1.14 1.598-2.31 2.408-3.511a569.575 569.575 0 003.183-4.785c.137.016.274.011.414.026.091.011.184.011.274.021.784.078 1.568.145 2.371.099.95-.042 1.898-.171 2.851-.389.104-.021.202-.016.311-.041.777-.192 1.502-.492 2.237-.787.13-.047.259-.083.383-.13a17.438 17.438 0 003.071-1.672c.9.502 1.791.999 2.672 1.485.771.425 1.543.85 2.304 1.264 1.693.911 3.351 1.792 4.966 2.641 16.617 8.658 28.812 13.21 30.271 10.802 1.455-2.402-8.212-11.117-23.57-21.861a301.52 301.52 0 00-4.635-3.18c-.74-.508-1.496-1.005-2.258-1.518-.818-.544-1.646-1.088-2.48-1.642a17.49 17.49 0 00.062-3.495c-.011-.135-.042-.264-.057-.389-.083-.787-.15-1.574-.342-2.353-.026-.101-.067-.192-.094-.292a18.2 18.2 0 00-.952-2.703 16.253 16.253 0 00-1.129-2.104c-.052-.081-.088-.171-.135-.251-.083-.122-.187-.228-.274-.35a345.459 345.459 0 004.748-8.733c.212-.401.435-.815.642-1.22 8.658-16.611 13.199-28.803 10.802-30.261-2.402-1.458-11.112 8.2-21.836 23.532a364.777 364.777 0 00-5.888 8.681c-.16.238-.315.492-.477.733-.698-.086-1.405-.182-2.128-.182-.976 0-1.938.187-2.905.35-.403.07-.805.049-1.203.143-1.432.352-2.758.929-4.023 1.607-.575.309-1.137.619-1.667.986-1.691-.95-3.35-1.861-4.979-2.747-.481-.259-.968-.531-1.447-.785a273.038 273.038 0 00-3.521-1.856c-16.617-8.658-28.811-13.214-30.271-10.807-1.458 2.403 8.209 11.12 23.565 21.862 1.064.748 2.146 1.496 3.265 2.26.445.306.919.614 1.375.922a386.13 386.13 0 004.735 3.148c-.08.637-.096 1.284-.106 1.932-.018 1.439.078 2.879.43 4.318.094.403.28.756.407 1.14.526 1.631 1.258 3.153 2.206 4.51-.148.259-.303.533-.445.792a691.113 691.113 0 00-2.314 4.247z" />
</svg>