<svg width="1.1rem" height="1.1rem" fill="#543322" stroke="#000000" stroke-width=".544rem" xmlns="http://www.w3.org/2000/svg" viewBox="0 0 272.88 272.88">
    <path d="M121.68 4.32c2.28.899 11.88 3.299 28.8 7.2h19.44c3.124 5.775 2.224 25.2 2.16 25.2-.216 1.944-3.964 11.227 2.16 35.28 9.627-13.505 7.92-27 7.92-28.08.144 0 .533-31.475 1.44-32.4 1.344 0 15.696.72 18.72.72 0 .432.216 15.12 0 15.12v32.4c.224 0 .464.96.72 2.88 1.296-2.4 2.016-3.6 2.16-3.6 0-.192 2.64-7.152 7.92-20.88l5.04-21.6 7.2-.72c3.072 1.44 4.752 2.16 5.04 2.16-2.475 5.072-11.961 36.27-12.105 36.27 0 .648-5.895 13.074-5.895 13.41-.216 0-5.007 5.888-9.36 17.28 0 1.344-5.548 17.118-6.648 19.664-4.14 14.796-5.376 47.296-5.592 47.296 0 23.52-1.98 16.2-.18 28.62.409 6.277 2.709 31.32 4.77 36.09.339 1.078 2.005 7.044 8.37 10.17 4.015 1.972 10.49 3.23 17.55 5.76 2.983 1.069 6.869 5.565 13.41 7.92 2.357.849 17.424-2.16 18.72-2.16 0-.224 7.525 2.247 9.9 4.41 4.124 3.758 5.22 7.686 5.22 7.83-.224 0-4.544-1.44-12.96-4.32-5.848.242-10.194 1.435-13.038 3.577-.859.789-9.87-.382-12.155 7.032 3.105 4.361 15.113 5.735 15.113 5.951 1.68 0 5.76 3.456 5.76 4.32-5.427-3.5-17.95-.945-20.61.158-4.365.054-25.42-1.262-26.19-1.598-7.352-3.204-35.775-.429-35.775-.765 3.562-32.337-6.644-48.458-25.611-78.387 1.961-8.535-4.426 5.892-6.654 5.892-36.088 22.993-52.039 46.951-47.854 71.875-12.401-.517-18.89-.775-19.466-.775 0-.096-8.58-2.492-13.792-.067-.918.426-10.384.067-11.408.067 0-.216-7.272-2.88-7.92-2.88 0-.336-3.312-1.44-4.32-1.44 0-.144-5.275-2.118-13.606-.441-2.991.601-7.576 2.669-13.754 6.201 3.565-6.886 7.301-11.138 11.208-12.756 7.588-3.143 14.184-2.364 21.912-2.364 0 .216 5.04.72 7.2.72 5.378-2.371 5.547-5.563 6.288-6.979 2.768-3.311 6.006-8.681 9.552-11.741 1.79-1.399 7.435-7.448 12.06-21.06 3.421-10.07 4.5-16.812 4.5-18.54h.72l-1.44-33.84c-2.256-10.56-3.456-15.84-3.6-15.84 0-.72-5.915-38.914-8.122-43.267-.484-.53-5.462-37.373-5.558-37.373 0-3.456-1.2-16.416-3.6-38.88 3.047-2.008 6.167-2.728 9.36-2.16.144 0 2.88 10.56 2.88 12.24.216 0 4.14 16.932 4.551 18.046C75.235 59.325 82.128 62.64 82.8 62.64c0-3.888-.108-20.267-5.04-48.24C84.029 9.648 94.109 6.288 108 4.32" />
</svg>