<svg width="1rem" height="1rem" fill="#c1a086" stroke="#000000" stroke-width=".660rem" xmlns="http://www.w3.org/2000/svg" viewBox="0 0 330.18 330.18">
	<path d="M165.09 0C88.446 0 26.316 57.804 26.316 129.108c0 4.096.214 34.958.615 38.957 0 0 4.17 17.875 138.159 17.875 135.583 0 138.158-17.875 138.158-17.875.4-4 .615-34.861.615-38.957C303.863 57.804 241.732 0 165.09 0zm-43.664 41.466c-11.932 2.803-23.274 8.827-33.276 17.01-23.177 18.962-32.125 46.485-29.974 75.899.542 7.416-10.981 7.363-11.52 0-2.307-31.545 7.718-63.076 32.705-83.519 11.18-9.146 24.783-17.158 39.002-20.498 7.227-1.697 10.293 9.41 3.063 11.108zM206.987 194.845c-13.836.513-25.226.775-41.898.775-14.889 0-26.655-.226-41.896-.817L109.045 316.47c-.494 7.54 5.284 13.71 12.841 13.71h86.407c7.557 0 13.336-6.17 12.84-13.71l-14.146-121.625z" />
</svg>