<svg width="1.1rem" height="1.1rem" fill="#cbb69f" stroke="#000000" stroke-width=".544rem" xmlns="http://www.w3.org/2000/svg" viewBox="0 0 272.16 272.16">
    <path d="M184.138 210.168c-2.302-2.301 1.7-9.905 9.004-17.209 7.204-7.203 14.908-11.205 17.209-9.004 2.3 2.201-1.701 9.905-9.005 17.209-7.303 7.303-14.907 11.305-17.208 9.004zm71.036 16.508c2.7 2.702-1.3 10.905-8.807 18.51-7.503 7.603-15.806 11.505-18.508 8.804-.5-.5-.7-1.1-.8-1.9-27.114 17.408-61.03 16.207-82.141-4.704-.9-1-1.7-2.1-2.401-3.201-7.304 3.3-15.508 5.904-24.212 7.904.1.4.2 2.902.2 3.202 0 4.902-11.106 8.803-24.713 8.803-13.606 0-24.712-3.9-24.712-8.803 0-.401.1-2.903.2-3.202-35.418-8.004-61.23-27.114-61.23-59.53 0-44.822 58.229-65.833 67.133-85.742 7.804-17.41-15.207-66.034-15.207-66.034l22.31 22.112s3.102-38.92 26.914-54.928c-1.5 12.406-9.705 21.41-5.603 52.927 8.004-19.51 23.812-26.714 23.812-26.714s-23.812 56.328-15.007 72.637c8.604 16.008 41.22 31.215 57.529 56.028 27.513-25.413 60.53-33.217 77.438-18.01 20.51 20.81 22.012 54.027 5.403 80.94 1 .101 1.801.301 2.402.901zm-76.039-30.015c-.7 10.806-4.302 20.01-10.105 27.614.2.3.3.5.5.7 4.002 4.003 20.71-.9 37.619-17.808 16.908-16.909 21.911-33.617 17.809-37.62-.9-.9-2.401-1.3-4.302-1.3-2.402 0-5.503.7-9.005 2.101-7.804 3.102-16.508 9.205-24.312 17.109-3.102 3.001-5.803 6.103-8.204 9.204zm62.23-43.721c-3.901-3.902-9.604-5.803-16.207-5.803-14.607 0-33.917 9.004-50.225 24.812a46.688 46.688 0 013.302 10.405c.7-.7 1.3-1.4 2-2.101 8.805-8.804 18.71-15.708 27.714-19.31 10.406-4.202 18.91-3.601 24.012 1.401 9.705 9.705 2 31.916-17.809 51.726-14.007 14.107-29.314 22.011-40.52 22.011-4.602 0-8.504-1.3-11.305-4.203-.1-.1-.2-.199-.3-.398-3.202 2.9-6.804 5.5-10.706 7.802.5.6 1 1.3 1.6 1.801 12.907 12.907 44.023 3.503 67.935-20.41 12.106-12.106 20.81-26.213 24.512-39.52 3.503-12.206 2-22.31-4.003-28.213z" />
</svg>