<svg width="1rem" height="1rem" fill="#88b100" stroke="#000000" stroke-width="1.024rem" xmlns="http://www.w3.org/2000/svg" viewBox="0 0 512 512">
	<path d="M397.263 297.531c-7.692-12.194-13.396-26.232-16.95-41.721-11.112-48.418-34.173-112.321-67.564-148.943 32.398-17.97 48.046-55.092 39.73-90.035a18.523 18.523 0 00-12.757-13.471c-41.105-12.176-85.196 9.637-99.75 50.811L220.24 34.44c-7.232-7.233-18.959-7.233-26.192 0-7.233 7.233-7.233 18.959 0 26.192l27.276 27.276c-46.715 29.291-77.027 113.401-89.456 167.153-3.712 16.051-9.474 30.341-17.126 42.473C56.932 389.192 149.935 512 256.005 512c106.443.002 198.952-123.013 141.258-214.469zM221.821 431.376c-6.233 8.107-17.862 9.63-25.971 3.392-16.166-12.431-29.254-29.026-36.852-46.726-4.034-9.4.314-20.29 9.714-24.324 9.401-4.036 20.29.314 24.324 9.714 5.069 11.806 14.324 23.46 25.393 31.973 8.109 6.234 9.628 17.863 3.392 25.971zm52.863-351.442a75.447 75.447 0 00-2.321-.604c1.111-24.036 21.025-42.799 45.256-42.262-.753 23.273-19.376 42.239-42.935 42.866z" />
</svg>