<svg width="1rem" height="1rem" fill="#074317" stroke="#000000" stroke-width=".524rem" xmlns="http://www.w3.org/2000/svg" viewBox="0 0 262.08 262.08">
    <path d="M194.179 172.348l15.67.164-23.596-26.592 15.316-10.982c-24.951-19.616-31.694-29.39-37.738-49.014l20.307 9.204-25.15-33.845 13.83-4.662C149.43 38.136 137.999 19.505 131.792.812v.139c-9.756 20.816-24.278 38.981-41.856 55.454l20.315-2.124-27.663 35.045 13.357-4.265-18.105 29.57 8.901 5.302-35.148 49.644 19.452.103L43.2 214.705l34.233-4.369 6.475 17.285 30.4-11.56-6.553 45.206h39.888l-3.79-39.517 15.298 6.563 5.5-13.356 23.847 11.291 30.382-11.17-24.701-42.721z" />
</svg>