<svg width="1.1rem" height="1.1rem" stroke="#000000" stroke-width=".544rem" xmlns="http://www.w3.org/2000/svg" viewBox="0 0 272.16 272.16">
  <g>
    <path fill="#ac5900" d="M53.28 179.964v-54.648c0-19.044 8.28-35.604 21.528-47.196h-7.452C32.58 78.12 3.6 107.1 3.6 141.876v21.528c0 34.776 28.98 63.756 63.756 63.756h6.624c-12.42-11.592-20.7-28.152-20.7-47.196zM204.804 78.12h-6.624c13.248 11.592 21.528 28.152 21.528 47.196v54.648c0 19.044-8.28 35.604-21.528 47.196h6.624c35.604 0 63.756-28.98 63.756-63.756v-21.528c0-34.776-28.98-63.756-63.756-63.756z" />
  </g>
  <path fill="#e38520" d="M155.124 78.12h-9.108c3.312-9.936 12.42-16.56 23.184-16.56 4.968 0 8.28-3.312 8.28-8.28S174.168 45 169.2 45c-19.872 0-36.432 14.076-40.572 33.12h-11.592c-25.668 0-47.196 21.528-47.196 47.196v54.648c0 26.496 21.528 47.196 47.196 47.196h19.044c-4.14 0-8.28-4.14-8.28-8.28V86.4c0-4.14 4.14-8.28 8.28-8.28s8.28 4.14 8.28 8.28v132.48c0 4.14-4.14 8.28-8.28 8.28h19.044c26.496 0 47.196-21.528 47.196-47.196v-54.648c0-25.668-21.528-47.196-47.196-47.196z" />
</svg>