<svg width="1.1rem" height="1.1rem" fill="#1e9501" stroke="#000000" stroke-width="1.024rem" xmlns="http://www.w3.org/2000/svg" viewBox="0 0 512 512">
  <path d="M480.6 460.2h-58.1v-20.4c9-24.4 33.4-69.7 59.7-71.8 11.2-.9 19.6-10.8 18.7-22-.9-11.2-10.7-19.8-22-18.7-23 1.9-41.8 15.3-56.5 31.9v-56.7c28.2-8.7 48.7-35 48.7-66V106.3c0-31-20.5-57.3-48.7-66v-8.9c0-11.3-9.1-20.4-20.4-20.4-11.3 0-20.4 9.1-20.4 20.4v8.9c-28.2 8.7-48.7 35-48.7 66v130.2c0 31 20.5 57.3 48.7 66v74.3c-12.3-13.6-27.7-23.4-46.6-23.4-15.1 0-22.4 10.1-21.9 21.3.5 11.3 10.1 19.9 21.3 19.5 17.5-.7 36.1 35.3 45.3 65.9H127.5v-20.4c9-24.4 33.4-69.7 59.7-71.8 11.2-.9 19.6-10.8 18.7-22-.9-11.2-10.7-19.8-22-18.7-23 1.9-41.8 15.3-56.5 31.9v-56.7c28.2-8.7 48.7-35 48.7-66V106.3c0-31-20.5-57.3-48.7-66v-8.9c0-11.3-9.1-20.4-20.4-20.4s-20.4 9.1-20.4 20.4v8.9c-28.2 8.7-48.7 35-48.7 66v130.2c0 31 20.5 57.3 48.7 66v74.3c-12.3-13.6-27.7-23.4-46.6-23.4-15.1 0-22.4 10.1-21.9 21.3.5 11.3 10.1 19.9 21.3 19.5 17.5-.7 36.1 35.3 45.3 65.9H31.4c-11.3 0-20.4 9.1-20.4 20.4 0 11.3 9.1 20.4 20.4 20.4h449.2c11.3 0 20.4-9.1 20.4-20.4 0-11.2-9.1-20.3-20.4-20.3zM373.8 106.3c0-15.6 12.7-28.3 28.3-28.3 15.6 0 28.3 12.7 28.3 28.3v130.2c0 15.6-12.7 28.3-28.3 28.3-15.6 0-28.3-12.7-28.3-28.3V106.3zm-295 0c0-15.6 12.7-28.3 28.3-28.3 15.6 0 28.3 12.7 28.3 28.3v130.2c0 15.6-12.7 28.3-28.3 28.3-15.6 0-28.3-12.7-28.3-28.3V106.3z" />
</svg>