<svg width="1rem" height="1rem" fill="#861423" stroke="#000000" stroke-width="1.022rem" xmlns="http://www.w3.org/2000/svg" viewBox="0 0 511.998 511.998">
	<path d="M340.983 141.019c21.951-30.419 36.661-65.91 38.684-70.912 5.336-13.199-5.004-27.439-19.166-26.489-1.617.107-32.619 2.331-63.546 15.43-6.848-19.896-16.234-38.065-25.137-50.811-7.669-10.973-23.959-10.991-31.638 0-8.824 12.629-18.185 30.808-25.059 50.844-30.953-13.13-62.007-15.358-63.627-15.464-14.179-.952-24.497 13.306-19.166 26.489 11.758 29.073 25.954 53.217 38.83 70.922-52.627 18.578-79.927 57.507-79.927 112.877 0 86.902 68.918 258.093 164.766 258.093 95.702 0 164.766-170.895 164.766-258.093.002-58.021-29.996-95.151-79.78-112.886zM327.997 88.87c-6.075 11.177-13.236 22.925-20.943 33.121.753-11.433.087-15.605-.992-24.729 7.22-3.543 14.777-6.284 21.935-8.392zM256 59.973c8.699 20.829 15.319 46.106 11.501 68.605a341.484 341.484 0 00-23.218-.046c-3.608-21.497 3.24-48.222 11.717-68.559zm-.001 184.09c8.941 0 16.19 7.248 16.19 16.19s-7.249 16.19-16.19 16.19-16.19-7.248-16.19-16.19 7.249-16.19 16.19-16.19zM205.941 97.285c-1.061 8.922-1.357 17.534-1.051 24.587-7.393-9.8-14.569-21.344-20.924-32.987 7.28 2.158 14.848 4.92 21.975 8.4zm-13.107 179.156c-8.941 0-16.19-7.248-16.19-16.19 0-8.941 7.248-16.19 16.19-16.19s16.19 7.248 16.19 16.19c0 8.943-7.247 16.19-16.19 16.19zm30.785 63.165c-8.941 0-16.19-7.248-16.19-16.19 0-8.941 7.249-16.19 16.19-16.19 8.942 0 16.19 7.249 16.19 16.19 0 8.942-7.248 16.19-16.19 16.19zm32.38 63.165c-8.941 0-16.19-7.248-16.19-16.19s7.249-16.19 16.19-16.19 16.19 7.248 16.19 16.19-7.249 16.19-16.19 16.19zm30.785-63.165c-8.942 0-16.19-7.248-16.19-16.19 0-8.941 7.248-16.19 16.19-16.19 8.941 0 16.19 7.249 16.19 16.19 0 8.942-7.248 16.19-16.19 16.19zm32.38-63.165c-8.942 0-16.19-7.248-16.19-16.19 0-8.941 7.248-16.19 16.19-16.19 8.941 0 16.19 7.248 16.19 16.19 0 8.943-7.249 16.19-16.19 16.19z" />
</svg>