<svg width="1rem" height="1rem" fill="#0a6408" stroke="#000000" stroke-width=".544rem" xmlns="http://www.w3.org/2000/svg" viewBox="0 0 272.16 272.16">
    <path d="M201.096 166.825c19.278-1.264 34.578-17.34 34.578-36.933 0-18.887-14.22-34.506-32.515-36.737a36.951 36.951 0 001.122-9.045c0-19.054-14.472-34.788-33.002-36.799a36.908 36.908 0 001.466-10.29C172.746 16.608 156.138 0 135.725 0c-20.413 0-37.02 16.608-37.02 37.021 0 3.571.517 7.02 1.465 10.29-18.53 2.011-33.001 17.745-33.001 36.8 0 3.12.391 6.147 1.122 9.044-18.295 2.231-32.516 17.85-32.516 36.737 0 19.592 15.3 35.67 34.578 36.933L125.7 215.99v35.3h-21.328c-3.326 0-6.032 2.539-6.032 5.66v8.853c0 3.113 2.706 5.646 6.032 5.646h62.706c3.142 0 5.422-2.374 5.422-5.646v-8.853c0-3.28-2.28-5.66-5.422-5.66H145.86v-35.397zm-55.236-1.293c8.967-2.518 16.565-8.33 21.4-16.05a37.287 37.287 0 0011.85 11.833l-33.25 29.538zm-53.52-4.216a37.3 37.3 0 0011.992-12.055c4.796 7.78 12.39 13.653 21.368 16.222v25.468z" />
</svg>