<svg width="1rem" height="1rem" fill="#2d8405" stroke="#000000" stroke-width=".846rem" xmlns="http://www.w3.org/2000/svg" viewBox="0 0 373.507 373.507">
	<path d="M205.638 325.507h-39c-4.411 0-8 3.589-8 8v32c0 4.411 3.589 8 8 8h39c4.411 0 8-3.589 8-8v-32c0-4.411-3.589-8-8-8zM311.045 212.507h-3.904c3.683-6.952 5.826-15.18 5.826-24 0-23.467-15.11-42.784-34.311-44.813 4.428-7.434 6.825-16.33 6.825-25.687 0-11.812-3.806-22.899-10.717-31.222-7.111-8.563-16.677-13.278-26.937-13.278h-7.335a56.171 56.171 0 002.66-17.107c.001-31.099-25.3-56.4-56.399-56.4s-56.399 25.301-56.399 56.399c0 5.963.937 11.708 2.66 17.107h-7.335c-10.26 0-19.825 4.716-26.937 13.278-6.911 8.322-10.717 19.41-10.717 31.222 0 9.357 2.397 18.253 6.825 25.687-19.2 2.03-34.31 21.347-34.31 44.814 0 8.82 2.142 17.048 5.826 24h-3.904c-20.762 0-37.653 20.411-37.653 45.5s16.892 45.5 37.653 45.5h248.584c20.762 0 37.653-20.411 37.653-45.5s-16.892-45.5-37.654-45.5z" />
</svg>