<svg width="1rem" height="1rem" fill="#37753d" stroke="#000000" stroke-width=".726rem" xmlns="http://www.w3.org/2000/svg" viewBox="0 0 363.787 363.787">
	<path d="M333.466 109.364c-4.146-12.894-12.939-23.429-24.824-29.769.106-.198.21-.397.313-.599 9.546-18.699 2.068-41.692-16.668-51.257a38.161 38.161 0 00-17.274-4.164c-6.267 0-12.498 1.578-18.024 4.512-4.799-7.972-11.65-14.36-20.064-18.655-7.09-3.619-14.732-5.454-22.716-5.454-11.464 0-22.84 3.991-31.732 11.046L165.754 6.49a5.038 5.038 0 00-1.155-.42C156.372 2.042 147.577 0 138.439 0 115.81 0 95.365 12.514 85.082 32.658a60.022 60.022 0 00-6.303 21.855 30.423 30.423 0 00-3.703-.227c-16.542 0-30 13.458-30 30 0 4.913 1.164 9.632 3.401 13.888A51.655 51.655 0 0033.5 115.996c-6.286 12.313-7.419 26.359-3.188 39.549 4.122 12.85 12.848 23.356 24.645 29.707-5.428 17.313 2.505 36.944 19.069 45.4a37.454 37.454 0 0017.186 4.131c4.482 0 8.955-.801 13.176-2.333 4.72 9.942 12.539 18.017 22.44 23.071 7.097 3.622 14.744 5.443 22.732 5.443 5.977 0 11.927-1.104 17.516-3.151v77.974h-29.128c-4.414 0-7.872 3.454-7.872 7.863v12.295c0 4.397 3.458 7.842 7.872 7.842h87.092c4.506 0 8.036-3.444 8.036-7.842V343.65c0-4.336-3.605-7.863-8.036-7.863h-28.964v-78.388l1.912.969 1.086.419h.448c8.119 4 16.788 6.021 25.788 6.021 22.641 0 43.096-12.456 53.385-32.611 3.102-6.077 5.116-12.437 6.016-19.099 1.114.125 2.238.188 3.365.188 16.542 0 30-13.458 30-30a29.923 29.923 0 00-4.289-15.463c6.957-4.831 12.604-11.291 16.504-18.932 6.286-12.311 7.414-26.349 3.175-39.527z" />
</svg>