<svg width="1rem" height="1rem" fill="#ae7f41" stroke="#000000" stroke-width=".544rem" xmlns="http://www.w3.org/2000/svg" viewBox="0 0 272.16 272.16">
  <g>
    <path d="M87.327 78.14a3.207 3.207 0 003.204-3.204v-23.47c0-1.763-1.436-3.2-3.204-3.2a3.202 3.202 0 00-3.197 3.2v23.47a3.203 3.203 0 003.197 3.204zM164.027 133.588c8.956-3.867 15.365-10.72 17.068-15.743l6.583-26.272c.77-2.273.248-4.613-1.346-6.041-1.594-1.429-3.983-1.694-6.174-.7l-23.15 10.575c-3.689 1.685-9.519 5.838-11.651 11.47l-8.663 22.359c-.206-.02-.406-.062-.616-.062-.212 0-.41.037-.617.062l-8.659-22.36c-2.132-5.63-7.962-9.784-11.655-11.469l-23.15-10.575c-2.19-.994-4.58-.729-6.174.7-1.594 1.428-2.112 3.768-1.341 6.04l6.583 26.273c1.702 5.023 8.107 11.876 17.068 15.743 8.231 3.548 16.198 5.47 22.123 6.513v29.924l-3.453-8.919c-2.132-5.63-7.962-9.784-11.656-11.47l-23.15-10.574c-2.19-.994-4.579-.73-6.173.7-1.595 1.428-2.112 3.767-1.342 6.04l6.584 26.273c1.701 5.023 8.107 11.875 17.067 15.742 8.232 3.549 16.198 5.474 22.124 6.513v29.925l-3.454-8.92c-2.132-5.63-7.962-9.784-11.655-11.469l-23.15-10.575c-2.19-.994-4.58-.729-6.174.7-1.594 1.428-2.112 3.767-1.341 6.04l6.583 26.273c1.702 5.022 8.107 11.875 17.068 15.743 8.231 3.548 16.198 5.47 22.123 6.513v13.962a5.82 5.82 0 005.822 5.821 5.82 5.82 0 005.822-5.821V248.56c5.925-1.044 13.89-2.965 22.127-6.513 8.956-3.868 15.365-10.72 17.068-15.743l6.583-26.272c.77-2.273.248-4.613-1.346-6.041-1.594-1.429-3.983-1.694-6.174-.7l-23.15 10.575c-3.689 1.685-9.519 5.838-11.651 11.47l-3.458 8.926V194.33c5.925-1.04 13.891-2.965 22.127-6.513 8.957-3.867 15.366-10.72 17.068-15.743l6.583-26.272c.77-2.273.249-4.613-1.345-6.041-1.595-1.429-3.984-1.694-6.174-.7l-23.15 10.575c-3.69 1.685-9.52 5.839-11.652 11.47l-3.457 8.931V140.1c5.925-1.043 13.89-2.964 22.127-6.512zM184.83 48.266a3.203 3.203 0 00-3.201 3.2v23.47a3.204 3.204 0 003.2 3.204c1.764 0 3.201-1.436 3.201-3.204v-23.47c0-1.763-1.437-3.2-3.2-3.2zM135.933 33.688a3.2 3.2 0 003.2-3.201V7.017a3.2 3.2 0 10-6.4 0v23.47a3.203 3.203 0 003.2 3.2zM109.723 57.918a3.2 3.2 0 003.2-3.2v-23.47a3.2 3.2 0 10-6.4 0v23.47c0 1.767 1.436 3.2 3.2 3.2zM162.635 57.918a3.2 3.2 0 003.201-3.2v-23.47a3.2 3.2 0 10-6.401 0v23.47c0 1.767 1.437 3.2 3.2 3.2z" />
    <path d="M130.683 97.481c1.097 1.885 3.05 3.04 5.146 3.04 2.099-.005 4.045-1.156 5.147-3.04l12.964-22.234c2.2-3.772 2.2-8.53 0-12.302l-12.964-22.23c-1.102-1.889-3.048-3.04-5.147-3.044-2.095 0-4.05 1.155-5.146 3.043l-12.965 22.227c-2.198 3.776-2.198 8.534 0 12.31z" />
  </g>
</svg>