<svg width="1.2rem" height="1.2rem" fill="#4b361a" stroke="#000000" stroke-width=".067rem" viewBox="0 0 33.867 33.867" xmlns="http://www.w3.org/2000/svg">
  <path d="M32.84 16.415l-10.27 2.984-2.349 4.969-.075 3.053c1.13.211 1.413 1.155 1.35 1.9l-3.61-.042-2.326-4.525.278-3.406-7.65 2.24-2.263 3.825c1.943.647 1.222 2.063 1.222 2.063l-4.409-.023-1.648-4.719s2.09-7.012 2.814-9.502c1.125-3.914 3.859-6.52 8.52-6.356 4.23.141 9.676.605 12.191.796.922-2.498 2.84-1.738 2.84-1.738L27.711 10c2.129.452 3.247 1.44 3.383 2.84l2.524.594zm-20.344 7.381l-.208 3.287c1.074.108 1.762 1.199 1.762 2.293H9.39l-1.508-2.97 1.138-1.588zm14.218.555c1.008 1.524-1.033 4.128-1.033 4.128l-.74-.308s.34-2.052-1.061-2.62c-1.402-.57-2.018-.897-2.018-.897l2.312-4.164s1.918 2.931 2.54 3.872z" />
</svg>