<svg width="1.2rem" height="1.2rem" fill="#3d2e1b" stroke="#000000" stroke-width=".067rem" viewBox="0 0 33.867 33.867" xmlns="http://www.w3.org/2000/svg">
  <path d="M21.696 27.377c-.082-.399-.304-.765-.653-1.076l-.35-.312.256-1.522c.14-.838.249-1.528.241-1.533a15.92 15.92 0 00-.765-.05l-.751-.038-.22 1.358-.221 1.357.238.263c.323.358.549.825.646 1.337l.081.427h1.542zm-2.601 0c-.082-.399-.304-.765-.653-1.076l-.35-.311.352-2.103c.193-1.156.363-2.114.378-2.128.014-.015.532.008 1.15.05 1.259.086 2.6.018 4.048-.204.745-.114 2.3-.436 2.404-.497.024-.014-.04-.21-.143-.437-.392-.865-.502-2.114-.22-2.492a1.84 1.84 0 01.31-.31c.17-.126.268-.134 1.602-.134s1.432.008 1.6.134c.319.238.423.44.484.945.078.63.19 1.1.264 1.1.076 0 1.626-.572 1.734-.64.045-.029.313-.745.596-1.591l.514-1.54-.271-.067c-.769-.191-1.8-.559-2.367-.843-.731-.368-.981-.601-2.228-2.083-2.49-2.96-4.201-4.502-5.952-5.364-1.253-.617-1.18-.64-.875.268.142.42.257.774.257.784 0 .011-.936-.449-2.081-1.021l-2.081-1.041v.78c0 .43-.008.781-.018.781-.01 0-.712-.232-1.56-.515l-1.544-.516v1.032l-.374-.049c-.205-.027-1.281-.049-2.39-.048-1.626.002-2.16.025-2.764.12-3.195.506-5.05 1.715-5.7 3.716-.145.445-.174.672-.202 1.57l-.033 1.05-.964.798c-.53.44-.995.874-1.033.967-.053.127-.018.63.146 2.093l.215 1.927-.181.217c-.244.291-.29.585-.16.996.121.376.858 1.666.953 1.666.095 0 .832-1.29.953-1.666.15-.471.081-.765-.26-1.095l-.27-.264-.198-1.732-.198-1.732.521-.43c.351-.288.535-.402.564-.348.023.044.063.343.087.665.062.792.275 2.023.469 2.698.191.669.557 1.467.778 1.7l.162.169-.264 1.049-.264 1.05.46 1.837c.252 1.011.487 1.948.523 2.082l.064.244H8.74l-.04-.343c-.117-.99-.568-1.52-1.506-1.77-.036-.01-.176-.355-.312-.768l-.247-.751 1.046-2.09c.855-1.71 1.065-2.083 1.157-2.055.64.202 4.45 1.039 5.932 1.304.519.092 1.01.183 1.09.2l.146.032v6.24h3.132zM24.85 14.06v-.52h1.04v1.04h-1.04zm-4.91-1.164c-.396-.175-.59-.35-.763-.687-.203-.396-.24-1.423-.06-1.71.064-.103.588.044 1.125.314.714.361 1.348 1.197 1.46 1.925.037.247.028.274-.113.304-.084.018-.417.025-.74.015-.433-.013-.67-.055-.91-.16zM9.4 12.86a.524.524 0 01-.159-.36c0-.127.06-.26.16-.361.15-.15.202-.16.88-.16.68 0 .731.01.882.16.1.1.16.234.16.36 0 .127-.06.26-.16.361-.15.15-.202.16-.881.16-.68 0-.73-.01-.881-.16zm3.123-2.081a.524.524 0 01-.16-.36c0-.127.059-.26.16-.361.15-.15.201-.16.88-.16.68 0 .731.01.882.16.1.1.16.234.16.36 0 .127-.06.26-.16.361-.15.15-.202.16-.881.16-.68 0-.731-.01-.881-.16zm-5.203 0a.524.524 0 01-.16-.36c0-.127.06-.26.16-.361.15-.15.202-.16.88-.16.68 0 .731.01.882.16.1.1.16.234.16.36 0 .127-.06.26-.16.361-.15.15-.202.16-.881.16-.68 0-.731-.01-.881-.16zm4.5 16.461c-.077-.655-.354-1.204-.735-1.453a2.65 2.65 0 00-.496-.215l-.333-.109-.25-.752-.251-.753.621-1.241c.342-.683.621-1.253.621-1.268 0-.035-1.696-.447-1.722-.418-.01.011-.355.694-.765 1.517l-.746 1.495.094.279c.077.227.15.307.398.433.432.221.79.553 1.033.957.227.378.473 1.223.473 1.626v.25h2.099zm18.814-4.769c-.531-.553-.786-.924-1.1-1.603a5.657 5.657 0 01-.496-1.751l-.044-.374H26.916l.046.439c.057.547.284 1.219.554 1.64.495.77 1.483 1.469 2.57 1.815 1.054.336 1.035.341.549-.166z" />
</svg>