<svg width="1.1rem" height="1.1rem" fill="#5f3a1c" stroke="#000000" stroke-width=".050rem" xmlns="http://www.w3.org/2000/svg" viewBox="0 0 25.289 25.289">
	<path d="M25.287 5.168c.053-.948-1.138-1.348-1.396-1.989.177-.183.373-1.325.323-1.683-.049-.346-.829.445-.967.287-.157-.183.109-.971-.18-1.377-.147-.207-.483 1.327-.737 1.442-.183.082-.502-.351-.828-.95-.533-.979-.239 1.129-.188 1.531-1.413.216-2.298 1.153-2.696 2.369-.438 1.337-1.661 4.313-3.911 4.454-2.703.17-5.718-2.358-7.14-3.814-.757-.773-1.31-2.999-2.636-2.827-.599.078-1.07.924-1.771 1.106 0 0-3.6.889-3.115 1.856.286.569 1.859 1.316 3.06 1.82a.111.111 0 01.065.135.114.114 0 01-.128.08c-1.03-.183-2.054-.222-1.03.657.253.217 1.202.675 2.092 1.082a.11.11 0 01.06.139.112.112 0 01-.133.073c-.721-.175-1.376-.251-1.336.064.089.71 2.828 2.794 2.828 2.794-.347.426 1.065 1.955 1.29 2.147-.324-.108-.673.016-.214.431.676.614.826 1.604 1.404 2.178 1.699 1.689 4.248.415 5.561 3.267.068.148.367.747.624 1.27a.563.563 0 01-.391.799l-1.699.352a.5.5 0 00.148.988l1.68-.157c.056-.005.11.024.137.074s.02.111-.017.155l-.134.161a.5.5 0 00.769.638l.707-.851a.563.563 0 01.551-.19l2.476.532a.502.502 0 00.264-.965l-2.234-.747a.561.561 0 01-.379-.458c-.054-.398-.124-.9-.173-1.284a.532.532 0 01.373-.577c1.134-.34 1.741-1.725 2.477-2.658.337-.43.813-.722 1.348-.831 2.928-.597 3.921-3.638 4.229-6.854.182-1.898-.71-2.667-1.182-4.08.593-.178 1.243-1.065 2.149-.589zm-3.222-1.057a.393.393 0 01-.393-.394.394.394 0 11.787 0 .391.391 0 01-.394.394z" />
</svg>