<svg width="1.2rem" height="1.2rem" fill="#a59887" stroke="#000000" stroke-width=".067rem" xmlns="http://www.w3.org/2000/svg" viewBox="0 0 30.354 30.354">
	<path d="M18.829 28.559c1.036-.002 1.396 1.449.948 1.449l-2.239.004c-.26 0-.22-.537-.178-1.043.042-.504-.736-5.443-.896-5.932-.158-.488-1.062.025-4.854.053-3.794.023-4.612-1.057-4.636-.25-.025.808-.47 1.795-.281 2.334.188.537.514 3.019.795 3.459.743-.078 1.225 1.271.744 1.271-.482 0-1.674.021-1.914.021-.241 0-.121-.623-.102-.979.021-.355-.717-2.32-1.084-2.861-.365-.539-.481-3.328-.481-3.328s-2.383 2.455-2.449 2.846c-.065.391-.009 3.249-.009 3.551.782.08 1.131 1.168.75 1.168s-1.688.031-1.979.031c-.294 0-.188-1.096-.108-1.312.078-.219-.418-2.582-.418-3.567 0-.987 1.838-3.748 1.838-4.529 0-.78-.626-2.368-.531-4 .144-2.442 1.648-3.681 4.039-3.701 4.488-.04 4.326 1.723 8.696 1.042 5.21-.812 8.815-1.724 7.963-4.135 0 0-.462-.955-.354-1.456.108-.5.354-.759.354-.759s-6.435-5.003-10.544-5.933c.5-1.286 6.541 1.394 6.541 1.394S17.083 1.431 12.83.18c4.539-1.537 10.687 7.292 10.687 7.292s3.697 1.362 6.381 6.438c.143 1.395-.587 1.697-1.312 1.508-.724-.189-1.291-.812-2.176-.644-.785.147-3.99 4.343-3.941 5.101.05.756.951 4.11 1.097 4.588.183.602-.289 1.957-.278 2.268.01.311.269.346.44.885.17.537.118 1.483-.604 1.645-.55-.551-1.099-1.098-1.328-1.327-.229-.229.316-.61.348-.759.029-.148.17-1.836-.189-2.52-.363-.683-2.047-2.938-2.047-2.938s-1.5 2.136-1.438 3.291c.088.781.261 3.314.359 3.551z" />
</svg>